<svg data-v-423bf9ae="" xmlns="http://www.w3.org/2000/svg" viewBox="0 0 240 107" class="iconLeftSlogan"><!----><!----><!----><g data-v-423bf9ae="" id="8bb41d89-d80d-4e5b-a7c0-5d67786872be" fill="#000000" transform="matrix(5.474453012044838,0,0,5.474453012044838,100.3403301131734,-14.726279392488486)"><path d="M2.76 8.51C2.77 8.67 2.77 8.92 2.77 9.46C2.77 11.27 2.70 11.82 2.58 12.31C2.48 12.73 2.34 12.87 1.93 12.87C1.54 12.87 1.39 12.73 1.29 12.31C1.16 11.79 1.09 11.24 1.09 8.08C1.09 5.05 1.15 4.51 1.26 4.09C1.37 3.60 1.54 3.44 1.92 3.44C2.35 3.44 2.48 3.64 2.58 4.09C2.66 4.45 2.72 5.14 2.72 5.56C2.72 5.88 2.72 6.01 2.70 6.10L3.43 6.10C3.44 5.96 3.44 5.85 3.44 5.56C3.44 4.93 3.40 4.19 3.21 3.54C3.02 2.94 2.69 2.69 1.92 2.69C1.15 2.69 0.84 2.90 0.60 3.64C0.43 4.17 0.35 4.80 0.35 8.08C0.35 11.49 0.43 12.14 0.63 12.78C0.84 13.44 1.18 13.65 1.92 13.65C2.67 13.65 3.00 13.45 3.21 12.78C3.37 12.24 3.49 11.51 3.49 9.32C3.49 8.58 3.47 8.11 3.46 7.77L1.67 7.77L1.67 8.51ZM5.05 13.47L5.05 2.87L4.27 2.87L4.27 13.47ZM6.72 13.47L6.72 8.51L8.47 8.51L8.47 7.77L6.72 7.77L6.72 3.64L8.51 3.64L8.51 2.87L5.96 2.87L5.96 13.47ZM10.79 13.47L10.79 3.64L11.91 3.64L11.91 2.87L8.88 2.87L8.88 3.64L10.02 3.64L10.02 13.47ZM14.36 8.46L14.36 7.81L11.86 7.81L11.86 8.46ZM17.71 13.47L17.71 12.67L15.90 12.67L15.90 8.44L17.70 8.44L17.70 7.70L15.90 7.70L15.90 3.64L17.72 3.64L17.72 2.87L15.15 2.87L15.15 13.47ZM21.73 13.47L21.73 13.41C21.64 13.15 21.63 13.02 21.55 11.33C21.48 9.87 21.45 9.55 21.31 9.03C21.25 8.82 21.14 8.61 20.94 8.51L20.94 8.46C21.14 8.40 21.31 8.23 21.42 7.91C21.56 7.49 21.62 7.13 21.62 5.73C21.62 4.13 21.46 3.70 21.24 3.36C21.03 3.04 20.73 2.87 20.24 2.87L18.54 2.87L18.54 13.47L19.29 13.47L19.29 8.81L20.01 8.81C20.30 8.81 20.48 8.92 20.58 9.21C20.69 9.56 20.72 9.83 20.78 11.48C20.83 12.99 20.89 13.22 20.96 13.47ZM19.29 8.11L19.29 3.63L20.19 3.63C20.40 3.63 20.55 3.71 20.66 3.92C20.82 4.20 20.85 4.40 20.85 5.73C20.85 7.18 20.80 7.53 20.64 7.81C20.48 8.06 20.31 8.11 19.98 8.11ZM25.51 13.47L24.57 2.87L23.27 2.87L22.26 13.47L23.03 13.47L23.30 10.36L24.47 10.36L24.72 13.47ZM24.43 9.62L23.34 9.62L23.79 4.83C23.84 4.19 23.87 3.78 23.87 3.47L23.93 3.47C23.93 3.78 23.95 4.19 24.01 4.83Z"></path></g><defs data-v-423bf9ae=""><linearGradient data-v-423bf9ae="" gradientTransform="rotate(25)" id="7ccbbe5d-fe17-4a1c-af22-d33f8a572a44" x1="0%" y1="0%" x2="100%" y2="0%"><stop data-v-423bf9ae="" offset="0%" style="stop-color: rgb(24, 27, 128); stop-opacity: 1;"></stop><stop data-v-423bf9ae="" offset="100%" style="stop-color: rgb(24, 30, 217); stop-opacity: 1;"></stop></linearGradient></defs><g data-v-423bf9ae="" id="047bfecf-8ece-4236-a7bb-56a92a153d05" transform="matrix(1.0868111504448785,0,0,1.0868111504448785,-13.255261890115804,-0.23894260335429607)" stroke="none" fill="url(#7ccbbe5d-fe17-4a1c-af22-d33f8a572a44)"><g clip-rule="evenodd"><path d="M12.983 10.59l17.018 88.223-5.872-59.049 29.021-1.892-.054-9.883L64.549 1 53.622 18.977z"></path><path d="M59.389 54.548l5.16-53.541-8.74 39.716-19.612 1.045 1.57 20.462-7.766 36.583 12.057-39.899z"></path><path d="M62.8 67.182l.549-10.453-15.979 3.755-.032 11.797-17.337 26.532 21.68-27.616zM65.711 62.394l14.841-4.731 1.509-12.532-15.899 2.095zM72.07 44.502l10.988-1.417 1.581-10.278-8.079-.373L64.549 1l8.43 30.967z"></path><path d="M87.413 31.294l1.256-9.506-9.544-2.694L64.549 1l14.483 22.437-.422 7z"></path></g></g><!----><g data-v-423bf9ae="" id="a0a91ad6-d8c6-4c67-a08c-20e63bac2b34" fill="#000000" transform="matrix(0.17957919482142765,0,0,0.17957919482142765,101.70507755562218,59.15059230974296)"><path d="M3.21 15.61L3.21 15.61L3.21 15.61Q3.14 15.04 3.10 14.36L3.10 14.36L3.10 14.36Q3.07 13.68 3.07 13.09L3.07 13.09L3.07 13.09Q3.07 12.15 3.13 11.29L3.13 11.29L3.13 11.29Q3.19 10.43 3.28 9.48L3.28 9.48L3.28 9.48Q3.37 8.54 3.49 7.43L3.49 7.43L3.49 7.43Q3.60 6.31 3.68 4.86L3.68 4.86L3.68 4.86Q3.86 4.86 4.21 4.96L4.21 4.96L4.21 4.96Q4.55 5.07 4.90 5.21L4.90 5.21L4.90 5.21Q5.25 5.35 5.52 5.49L5.52 5.49L5.52 5.49Q5.78 5.64 5.82 5.74L5.82 5.74L5.82 5.74Q5.59 6.29 5.40 7.18L5.40 7.18L5.40 7.18Q5.21 8.06 5.08 9.11L5.08 9.11L5.08 9.11Q4.96 10.16 4.89 11.27L4.89 11.27L4.89 11.27Q4.82 12.38 4.82 13.34L4.82 13.34L4.82 13.34Q4.82 13.79 4.83 14.22L4.83 14.22L4.83 14.22Q4.84 14.66 4.87 15.02L4.87 15.02L4.87 15.02Q5.17 14.59 5.55 13.78L5.55 13.78L5.55 13.78Q5.94 12.98 6.35 11.98L6.35 11.98L6.35 11.98Q6.76 10.99 7.17 9.91L7.17 9.91L7.17 9.91Q7.59 8.82 7.94 7.83L7.94 7.83L7.94 7.83Q8.29 6.85 8.53 6.05L8.53 6.05L8.53 6.05Q8.78 5.26 8.88 4.86L8.88 4.86L8.88 4.86Q9.06 4.86 9.42 4.96L9.42 4.96L9.42 4.96Q9.77 5.07 10.12 5.21L10.12 5.21L10.12 5.21Q10.46 5.35 10.72 5.49L10.72 5.49L10.72 5.49Q10.99 5.64 11.02 5.74L11.02 5.74L11.02 5.74Q10.78 6.29 10.59 7.18L10.59 7.18L10.59 7.18Q10.40 8.06 10.28 9.11L10.28 9.11L10.28 9.11Q10.15 10.16 10.08 11.27L10.08 11.27L10.08 11.27Q10.01 12.38 10.01 13.34L10.01 13.34L10.01 13.34Q10.01 13.75 10.02 14.15L10.02 14.15L10.02 14.15Q10.02 14.55 10.05 14.87L10.05 14.87L10.05 14.87Q10.50 13.71 10.98 12.56L10.98 12.56L10.98 12.56Q11.47 11.42 11.94 10.38L11.94 10.38L11.94 10.38Q12.42 9.34 12.87 8.43L12.87 8.43L12.87 8.43Q13.31 7.53 13.69 6.82L13.69 6.82L13.69 6.82Q14.07 6.12 14.35 5.66L14.35 5.66L14.35 5.66Q14.63 5.19 14.78 5.04L14.78 5.04L14.78 5.04Q15.11 5.08 15.45 5.27L15.45 5.27L15.45 5.27Q15.79 5.46 16.06 5.75L16.06 5.75L16.06 5.75Q15.65 6.08 15.13 6.81L15.13 6.81L15.13 6.81Q14.62 7.55 14.07 8.51L14.07 8.51L14.07 8.51Q13.52 9.48 12.97 10.57L12.97 10.57L12.97 10.57Q12.42 11.66 11.94 12.70L11.94 12.70L11.94 12.70Q11.47 13.73 11.10 14.63L11.10 14.63L11.10 14.63Q10.72 15.53 10.53 16.07L10.53 16.07L10.53 16.07Q10.16 16.24 9.81 16.24L9.81 16.24L9.81 16.24Q9.37 16.18 8.97 16.02L8.97 16.02L8.97 16.02Q8.57 15.85 8.40 15.61L8.40 15.61L8.40 15.61Q8.36 15.39 8.33 15.09L8.33 15.09L8.33 15.09Q8.30 14.78 8.29 14.49L8.29 14.49L8.29 14.49Q8.27 14.20 8.27 13.92L8.27 13.92L8.27 13.92Q8.26 13.65 8.26 13.45L8.26 13.45L8.26 13.45Q8.26 12.21 8.36 10.91L8.36 10.91L8.36 10.91Q8.46 9.62 8.60 8.13L8.60 8.13L8.60 8.13Q8.27 9.09 7.88 10.18L7.88 10.18L7.88 10.18Q7.49 11.27 7.06 12.34L7.06 12.34L7.06 12.34Q6.64 13.41 6.20 14.38L6.20 14.38L6.20 14.38Q5.75 15.36 5.33 16.07L5.33 16.07L5.33 16.07Q4.97 16.24 4.62 16.24L4.62 16.24L4.62 16.24Q4.17 16.18 3.77 16.02L3.77 16.02L3.77 16.02Q3.37 15.85 3.21 15.61ZM27.22 14.36L27.22 14.36L27.22 14.36Q27.22 13.78 27.41 12.85L27.41 12.85L27.41 12.85Q27.61 11.93 27.93 10.88L27.93 10.88L27.93 10.88Q27.01 10.95 26.07 11.06L26.07 11.06L26.07 11.06Q25.14 11.17 24.46 11.19L24.46 11.19L24.46 11.19Q23.83 12.66 23.46 13.89L23.46 13.89L23.46 13.89Q23.09 15.13 22.88 16.31L22.88 16.31L22.88 16.31Q22.34 16.18 21.99 15.87L21.99 15.87L21.99 15.87Q21.64 15.55 21.35 15.08L21.35 15.08L21.35 15.08Q21.46 14.85 21.61 14.50L21.61 14.50L21.61 14.50Q21.76 14.15 21.96 13.66L21.96 13.66L21.96 13.66Q22.16 13.16 22.42 12.50L22.42 12.50L22.42 12.50Q22.68 11.83 23.02 10.95L23.02 10.95L23.02 10.95Q22.55 10.75 22.40 10.40L22.40 10.40L22.40 10.40Q22.47 10.35 22.71 10.28L22.71 10.28L22.71 10.28Q22.96 10.22 23.32 10.15L23.32 10.15L23.51 9.70L23.51 9.70Q23.80 8.95 23.99 8.43L23.99 8.43L23.99 8.43Q24.18 7.91 24.31 7.41L24.31 7.41L24.31 7.41Q24.44 6.92 24.56 6.31L24.56 6.31L24.56 6.31Q24.68 5.71 24.85 4.79L24.85 4.79L24.85 4.79Q25.44 4.90 25.92 5.31L25.92 5.31L25.92 5.31Q26.40 5.71 26.75 6.29L26.75 6.29L26.75 6.29Q26.63 6.45 26.45 6.79L26.45 6.79L26.45 6.79Q26.26 7.13 26.05 7.59L26.05 7.59L26.05 7.59Q25.83 8.06 25.58 8.64L25.58 8.64L25.58 8.64Q25.33 9.23 25.03 9.87L25.03 9.87L25.03 9.87Q25.90 9.76 26.79 9.66L26.79 9.66L26.79 9.66Q27.68 9.56 28.36 9.52L28.36 9.52L28.36 9.52Q28.62 8.79 28.89 8.10L28.89 8.10L28.89 8.10Q29.16 7.41 29.43 6.83L29.43 6.83L29.43 6.83Q29.69 6.26 29.94 5.82L29.94 5.82L29.94 5.82Q30.18 5.39 30.38 5.18L30.38 5.18L30.38 5.18Q30.52 5.19 30.75 5.29L30.75 5.29L30.75 5.29Q30.98 5.38 31.22 5.50L31.22 5.50L31.22 5.50Q31.46 5.63 31.65 5.78L31.65 5.78L31.65 5.78Q31.85 5.92 31.92 6.05L31.92 6.05L31.92 6.05Q31.67 6.29 31.42 6.66L31.42 6.66L31.42 6.66Q31.16 7.04 30.92 7.53L30.92 7.53L30.92 7.53Q30.67 8.02 30.44 8.60L30.44 8.60L30.44 8.60Q30.20 9.17 29.99 9.79L29.99 9.79L29.99 9.79Q30.27 10.04 30.27 10.42L30.27 10.42L30.27 10.42Q30.27 10.68 30.16 10.91L30.16 10.91L30.16 10.91Q30.03 10.88 29.90 10.87L29.90 10.87L29.90 10.87Q29.78 10.86 29.64 10.85L29.64 10.85L29.64 10.85Q29.40 11.61 29.20 12.35L29.20 12.35L29.20 12.35Q29.01 13.09 28.88 13.76L28.88 13.76L28.88 13.76Q28.74 14.43 28.66 14.99L28.66 14.99L28.66 14.99Q28.59 15.55 28.59 15.93L28.59 15.93L28.59 15.93Q28.59 16.07 28.59 16.16L28.59 16.16L28.59 16.16Q28.60 16.24 28.62 16.30L28.62 16.30L28.62 16.30Q28.31 16.28 28.17 16.19L28.17 16.19L28.17 16.19Q28.03 16.10 27.96 16.00L27.96 16.00L27.96 16.00Q27.89 15.89 27.83 15.79L27.83 15.79L27.83 15.79Q27.78 15.68 27.65 15.62L27.65 15.62L27.65 15.62Q27.55 15.58 27.47 15.43L27.47 15.43L27.47 15.43Q27.38 15.27 27.33 15.08L27.33 15.08L27.33 15.08Q27.27 14.88 27.24 14.69L27.24 14.69L27.24 14.69Q27.22 14.49 27.22 14.36ZM43.99 9.21L43.99 9.21L43.99 9.21Q44.45 9.21 44.71 9.46L44.71 9.46L44.71 9.46Q44.97 9.72 44.97 10.16L44.97 10.16L44.97 10.16Q44.97 10.28 44.95 10.39L44.95 10.39L44.95 10.39Q44.93 10.51 44.90 10.60L44.90 10.60L44.90 10.60Q44.72 10.57 44.49 10.55L44.49 10.55L44.49 10.55Q44.27 10.53 43.96 10.53L43.96 10.53L43.96 10.53Q43.36 10.53 42.74 10.63L42.74 10.63L42.74 10.63Q42.13 10.74 41.57 10.81L41.57 10.81L41.57 10.81Q41.24 11.55 40.98 12.24L40.98 12.24L40.98 12.24Q40.71 12.94 40.52 13.51L40.52 13.51L40.52 13.51Q40.33 14.08 40.23 14.50L40.23 14.50L40.23 14.50Q40.12 14.92 40.11 15.13L40.11 15.13L40.11 15.13Q41.24 14.90 42.40 14.73L42.40 14.73L42.40 14.73Q43.55 14.56 44.83 14.48L44.83 14.48L44.83 14.48Q44.98 14.71 45.09 14.99L45.09 14.99L45.09 14.99Q45.19 15.27 45.19 15.60L45.19 15.60L45.19 15.60Q45.19 15.68 45.19 15.78L45.19 15.78L45.19 15.78Q45.19 15.88 45.16 15.97L45.16 15.97L45.16 15.97Q44.77 15.96 44.34 15.95L44.34 15.95L44.34 15.95Q43.90 15.95 43.20 15.95L43.20 15.95L43.20 15.95Q42.74 15.95 42.33 15.97L42.33 15.97L42.33 15.97Q41.92 15.99 41.50 16.03L41.50 16.03L41.50 16.03Q41.08 16.07 40.61 16.14L40.61 16.14L40.61 16.14Q40.14 16.21 39.55 16.31L39.55 16.31L39.55 16.31Q38.91 16.06 38.30 15.08L38.30 15.08L38.30 15.08Q38.54 14.57 38.97 13.54L38.97 13.54L38.97 13.54Q39.40 12.52 40.05 10.79L40.05 10.79L40.05 10.79Q39.42 10.60 39.23 10.09L39.23 10.09L39.23 10.09Q39.30 10.02 39.63 9.92L39.63 9.92L39.63 9.92Q39.97 9.81 40.46 9.70L40.46 9.70L40.46 9.70Q40.67 9.16 40.82 8.75L40.82 8.75L40.82 8.75Q40.96 8.34 41.08 7.99L41.08 7.99L41.08 7.99Q41.19 7.63 41.28 7.29L41.28 7.29L41.28 7.29Q41.37 6.94 41.45 6.54L41.45 6.54L41.45 6.54Q40.96 6.51 40.68 6.27L40.68 6.27L40.68 6.27Q40.40 6.02 40.40 5.63L40.40 5.63L40.40 5.63Q40.40 5.52 40.44 5.36L40.44 5.36L40.44 5.36Q40.47 5.21 40.52 5.10L40.52 5.10L40.52 5.10Q40.80 5.14 41.05 5.15L41.05 5.15L41.05 5.15Q41.31 5.17 41.73 5.17L41.73 5.17L41.73 5.17Q42.62 5.17 43.39 5.12L43.39 5.12L43.39 5.12Q44.16 5.07 44.78 5.01L44.78 5.01L44.78 5.01Q45.40 4.96 45.85 4.91L45.85 4.91L45.85 4.91Q46.30 4.86 46.54 4.86L46.54 4.86L46.54 4.86Q46.86 4.86 47.11 5.19L47.11 5.19L47.11 5.19Q47.36 5.53 47.49 6.15L47.49 6.15L47.49 6.15Q47.05 6.10 46.78 6.09L46.78 6.09L46.78 6.09Q46.51 6.08 46.30 6.08L46.30 6.08L46.30 6.08Q45.53 6.08 44.89 6.15L44.89 6.15L44.89 6.15Q44.25 6.23 43.67 6.31L43.67 6.31L43.67 6.31Q43.58 6.44 43.48 6.64L43.48 6.64L43.48 6.64Q43.37 6.83 43.20 7.18L43.20 7.18L43.20 7.18Q43.04 7.53 42.79 8.06L42.79 8.06L42.79 8.06Q42.55 8.60 42.20 9.39L42.20 9.39L42.20 9.39Q42.73 9.31 43.20 9.26L43.20 9.26L43.20 9.26Q43.67 9.21 43.99 9.21ZM63.25 7.46L63.25 7.46L63.25 7.46Q63.25 8.13 62.95 8.73L62.95 8.73L62.95 8.73Q62.65 9.32 62.12 9.79L62.12 9.79L62.12 9.79Q61.59 10.26 60.87 10.58L60.87 10.58L60.87 10.58Q60.16 10.91 59.32 11.02L59.32 11.02L59.32 11.02Q59.53 11.65 59.83 12.31L59.83 12.31L59.83 12.31Q60.13 12.98 60.48 13.59L60.48 13.59L60.48 13.59Q60.83 14.21 61.21 14.73L61.21 14.73L61.21 14.73Q61.59 15.25 61.95 15.58L61.95 15.58L61.95 15.58Q61.88 15.72 61.75 15.86L61.75 15.86L61.75 15.86Q61.61 16.00 61.44 16.12L61.44 16.12L61.44 16.12Q61.26 16.24 61.07 16.32L61.07 16.32L61.07 16.32Q60.89 16.39 60.72 16.39L60.72 16.39L60.72 16.39Q60.41 16.39 60.13 16.10L60.13 16.10L60.13 16.10Q59.85 15.81 59.56 15.17L59.56 15.17L59.56 15.17Q59.28 14.53 58.96 13.52L58.96 13.52L58.96 13.52Q58.65 12.50 58.27 11.07L58.27 11.07L58.27 11.07Q58.11 11.07 57.96 11.07L57.96 11.07L57.96 11.07Q57.81 11.07 57.72 11.05L57.72 11.05L57.72 11.05Q57.62 10.99 57.51 10.85L57.51 10.85L57.51 10.85Q57.13 11.66 56.84 12.38L56.84 12.38L56.84 12.38Q56.55 13.09 56.31 13.76L56.31 13.76L56.31 13.76Q56.08 14.42 55.91 15.04L55.91 15.04L55.91 15.04Q55.73 15.67 55.61 16.31L55.61 16.31L55.61 16.31Q55.13 16.20 54.78 15.90L54.78 15.90L54.78 15.90Q54.43 15.61 54.12 15.08L54.12 15.08L54.12 15.08Q54.18 14.95 54.24 14.83L54.24 14.83L54.24 14.83Q54.31 14.71 54.40 14.50L54.40 14.50L54.40 14.50Q54.50 14.28 54.65 13.94L54.65 13.94L54.65 13.94Q54.80 13.61 55.04 13.05L55.04 13.05L55.04 13.05Q55.29 12.49 55.63 11.68L55.63 11.68L55.63 11.68Q55.97 10.86 56.46 9.70L56.46 9.70L56.46 9.70Q56.69 9.18 56.85 8.79L56.85 8.79L56.85 8.79Q57.01 8.40 57.13 8.04L57.13 8.04L57.13 8.04Q57.26 7.69 57.36 7.33L57.36 7.33L57.36 7.33Q57.47 6.97 57.58 6.51L57.58 6.51L57.58 6.51Q56.94 6.73 56.38 7.01L56.38 7.01L56.38 7.01Q55.83 7.28 55.47 7.59L55.47 7.59L55.47 7.59Q55.34 7.50 55.21 7.34L55.21 7.34L55.21 7.34Q55.08 7.17 54.96 6.96L54.96 6.96L54.96 6.96Q54.85 6.76 54.77 6.55L54.77 6.55L54.77 6.55Q54.68 6.34 54.67 6.17L54.67 6.17L54.67 6.17Q55.09 5.89 55.70 5.66L55.70 5.66L55.70 5.66Q56.31 5.42 56.99 5.24L56.99 5.24L56.99 5.24Q57.68 5.07 58.39 4.97L58.39 4.97L58.39 4.97Q59.11 4.87 59.72 4.87L59.72 4.87L59.72 4.87Q61.40 4.87 62.33 5.56L62.33 5.56L62.33 5.56Q63.25 6.26 63.25 7.46ZM59.67 6.02L59.84 6.29L59.84 6.29Q59.74 6.41 59.53 6.79L59.53 6.79L59.53 6.79Q59.32 7.17 59.05 7.69L59.05 7.69L59.05 7.69Q58.77 8.22 58.47 8.83L58.47 8.83L58.47 8.83Q58.17 9.45 57.89 10.05L57.89 10.05L57.89 10.05Q58.94 10.05 59.82 9.86L59.82 9.86L59.82 9.86Q60.70 9.66 61.35 9.30L61.35 9.30L61.35 9.30Q61.99 8.95 62.35 8.46L62.35 8.46L62.35 8.46Q62.71 7.98 62.71 7.39L62.71 7.39L62.71 7.39Q62.71 6.69 62.20 6.32L62.20 6.32L62.20 6.32Q61.70 5.95 60.65 5.95L60.65 5.95L60.65 5.95Q60.41 5.95 60.17 5.97L60.17 5.97L60.17 5.97Q59.93 5.99 59.67 6.02L59.67 6.02ZM76.08 9.21L76.08 9.21L76.08 9.21Q76.54 9.21 76.80 9.46L76.80 9.46L76.80 9.46Q77.06 9.72 77.06 10.16L77.06 10.16L77.06 10.16Q77.06 10.28 77.03 10.39L77.03 10.39L77.03 10.39Q77.01 10.51 76.99 10.60L76.99 10.60L76.99 10.60Q76.80 10.57 76.58 10.55L76.58 10.55L76.58 10.55Q76.36 10.53 76.05 10.53L76.05 10.53L76.05 10.53Q75.45 10.53 74.83 10.63L74.83 10.63L74.83 10.63Q74.21 10.74 73.65 10.81L73.65 10.81L73.65 10.81Q73.33 11.55 73.07 12.24L73.07 12.24L73.07 12.24Q72.80 12.94 72.61 13.51L72.61 13.51L72.61 13.51Q72.42 14.08 72.32 14.50L72.32 14.50L72.32 14.50Q72.21 14.92 72.20 15.13L72.20 15.13L72.20 15.13Q73.33 14.90 74.49 14.73L74.49 14.73L74.49 14.73Q75.64 14.56 76.92 14.48L76.92 14.48L76.92 14.48Q77.07 14.71 77.17 14.99L77.17 14.99L77.17 14.99Q77.28 15.27 77.28 15.60L77.28 15.60L77.28 15.60Q77.28 15.68 77.28 15.78L77.28 15.78L77.28 15.78Q77.28 15.88 77.25 15.97L77.25 15.97L77.25 15.97Q76.86 15.96 76.43 15.95L76.43 15.95L76.43 15.95Q75.99 15.95 75.29 15.95L75.29 15.95L75.29 15.95Q74.83 15.95 74.42 15.97L74.42 15.97L74.42 15.97Q74.00 15.99 73.58 16.03L73.58 16.03L73.58 16.03Q73.16 16.07 72.69 16.14L72.69 16.14L72.69 16.14Q72.23 16.21 71.64 16.31L71.64 16.31L71.64 16.31Q70.99 16.06 70.39 15.08L70.39 15.08L70.39 15.08Q70.63 14.57 71.06 13.54L71.06 13.54L71.06 13.54Q71.48 12.52 72.14 10.79L72.14 10.79L72.14 10.79Q71.51 10.60 71.32 10.09L71.32 10.09L71.32 10.09Q71.39 10.02 71.72 9.92L71.72 9.92L71.72 9.92Q72.06 9.81 72.55 9.70L72.55 9.70L72.55 9.70Q72.76 9.16 72.91 8.75L72.91 8.75L72.91 8.75Q73.05 8.34 73.16 7.99L73.16 7.99L73.16 7.99Q73.28 7.63 73.37 7.29L73.37 7.29L73.37 7.29Q73.46 6.94 73.54 6.54L73.54 6.54L73.54 6.54Q73.05 6.51 72.77 6.27L72.77 6.27L72.77 6.27Q72.49 6.02 72.49 5.63L72.49 5.63L72.49 5.63Q72.49 5.52 72.53 5.36L72.53 5.36L72.53 5.36Q72.56 5.21 72.60 5.10L72.60 5.10L72.60 5.10Q72.88 5.14 73.14 5.15L73.14 5.15L73.14 5.15Q73.40 5.17 73.82 5.17L73.82 5.17L73.82 5.17Q74.70 5.17 75.47 5.12L75.47 5.12L75.47 5.12Q76.24 5.07 76.87 5.01L76.87 5.01L76.87 5.01Q77.49 4.96 77.94 4.91L77.94 4.91L77.94 4.91Q78.39 4.86 78.62 4.86L78.62 4.86L78.62 4.86Q78.95 4.86 79.20 5.19L79.20 5.19L79.20 5.19Q79.45 5.53 79.58 6.15L79.58 6.15L79.58 6.15Q79.14 6.10 78.87 6.09L78.87 6.09L78.87 6.09Q78.60 6.08 78.39 6.08L78.39 6.08L78.39 6.08Q77.62 6.08 76.98 6.15L76.98 6.15L76.98 6.15Q76.34 6.23 75.75 6.31L75.75 6.31L75.75 6.31Q75.67 6.44 75.56 6.64L75.56 6.64L75.56 6.64Q75.46 6.83 75.29 7.18L75.29 7.18L75.29 7.18Q75.12 7.53 74.88 8.06L74.88 8.06L74.88 8.06Q74.63 8.60 74.28 9.39L74.28 9.39L74.28 9.39Q74.82 9.31 75.28 9.26L75.28 9.26L75.28 9.26Q75.75 9.21 76.08 9.21ZM98.92 6.69L98.92 6.69L98.92 6.69Q98.36 6.69 98.06 6.38L98.06 6.38L98.06 6.38Q97.76 6.06 97.76 5.61L97.76 5.61L97.76 5.61Q97.76 5.50 97.80 5.35L97.80 5.35L97.80 5.35Q97.83 5.19 97.89 5.08L97.89 5.08L97.89 5.08Q98.07 5.17 98.43 5.20L98.43 5.20L98.43 5.20Q98.78 5.24 99.26 5.24L99.26 5.24L99.26 5.24Q99.97 5.24 100.88 5.17L100.88 5.17L100.88 5.17Q101.78 5.11 102.61 5.04L102.61 5.04L102.61 5.04Q103.43 4.97 104.06 4.91L104.06 4.91L104.06 4.91Q104.69 4.84 104.87 4.84L104.87 4.84L104.87 4.84Q105.39 4.84 105.62 5.23L105.62 5.23L105.62 5.23Q105.85 5.61 105.97 6.26L105.97 6.26L105.97 6.26Q105.60 6.23 105.24 6.21L105.24 6.21L105.24 6.21Q104.89 6.19 104.64 6.19L104.64 6.19L104.64 6.19Q104.19 6.19 103.73 6.22L103.73 6.22L103.73 6.22Q103.28 6.24 102.82 6.30L102.82 6.30L102.82 6.30Q102.62 6.71 102.38 7.26L102.38 7.26L102.38 7.26Q102.14 7.81 101.91 8.41L101.91 8.41L101.91 8.41Q101.68 9.02 101.47 9.61L101.47 9.61L101.47 9.61Q101.26 10.21 101.11 10.68L101.11 10.68L101.11 10.68Q100.80 11.61 100.57 12.39L100.57 12.39L100.57 12.39Q100.34 13.17 100.16 13.85L100.16 13.85L100.16 13.85Q99.99 14.53 99.86 15.15L99.86 15.15L99.86 15.15Q99.74 15.76 99.64 16.35L99.64 16.35L99.64 16.35Q98.70 16.21 98.07 15.18L98.07 15.18L98.07 15.18Q98.18 14.74 98.34 14.23L98.34 14.23L98.34 14.23Q98.50 13.72 98.72 13.07L98.72 13.07L98.72 13.07Q98.94 12.42 99.23 11.59L99.23 11.59L99.23 11.59Q99.53 10.77 99.90 9.72L99.90 9.72L99.90 9.72Q100.04 9.32 100.20 8.90L100.20 8.90L100.20 8.90Q100.35 8.47 100.50 8.05L100.50 8.05L100.50 8.05Q100.65 7.63 100.76 7.24L100.76 7.24L100.76 7.24Q100.88 6.85 100.97 6.52L100.97 6.52L100.97 6.52Q100.38 6.59 99.85 6.64L99.85 6.64L99.85 6.64Q99.33 6.69 98.92 6.69ZM120.90 7.46L120.90 7.46L120.90 7.46Q120.90 8.13 120.60 8.73L120.60 8.73L120.60 8.73Q120.30 9.32 119.77 9.79L119.77 9.79L119.77 9.79Q119.24 10.26 118.52 10.58L118.52 10.58L118.52 10.58Q117.81 10.91 116.97 11.02L116.97 11.02L116.97 11.02Q117.18 11.65 117.48 12.31L117.48 12.31L117.48 12.31Q117.78 12.98 118.13 13.59L118.13 13.59L118.13 13.59Q118.48 14.21 118.86 14.73L118.86 14.73L118.86 14.73Q119.24 15.25 119.60 15.58L119.60 15.58L119.60 15.58Q119.53 15.72 119.40 15.86L119.40 15.86L119.40 15.86Q119.27 16.00 119.09 16.12L119.09 16.12L119.09 16.12Q118.92 16.24 118.73 16.32L118.73 16.32L118.73 16.32Q118.54 16.39 118.37 16.39L118.37 16.39L118.37 16.39Q118.06 16.39 117.78 16.10L117.78 16.10L117.78 16.10Q117.50 15.81 117.21 15.17L117.21 15.17L117.21 15.17Q116.93 14.53 116.61 13.52L116.61 13.52L116.61 13.52Q116.30 12.50 115.92 11.07L115.92 11.07L115.92 11.07Q115.77 11.07 115.61 11.07L115.61 11.07L115.61 11.07Q115.46 11.07 115.37 11.05L115.37 11.05L115.37 11.05Q115.28 10.99 115.16 10.85L115.16 10.85L115.16 10.85Q114.79 11.66 114.49 12.38L114.49 12.38L114.49 12.38Q114.20 13.09 113.97 13.76L113.97 13.76L113.97 13.76Q113.74 14.42 113.56 15.04L113.56 15.04L113.56 15.04Q113.39 15.67 113.26 16.31L113.26 16.31L113.26 16.31Q112.78 16.20 112.43 15.90L112.43 15.90L112.43 15.90Q112.08 15.61 111.78 15.08L111.78 15.08L111.78 15.08Q111.83 14.95 111.89 14.83L111.89 14.83L111.89 14.83Q111.96 14.71 112.06 14.50L112.06 14.50L112.06 14.50Q112.15 14.28 112.30 13.94L112.30 13.94L112.30 13.94Q112.45 13.61 112.69 13.05L112.69 13.05L112.69 13.05Q112.94 12.49 113.28 11.68L113.28 11.68L113.28 11.68Q113.62 10.86 114.11 9.70L114.11 9.70L114.11 9.70Q114.34 9.18 114.50 8.79L114.50 8.79L114.50 8.79Q114.66 8.40 114.79 8.04L114.79 8.04L114.79 8.04Q114.91 7.69 115.02 7.33L115.02 7.33L115.02 7.33Q115.12 6.97 115.23 6.51L115.23 6.51L115.23 6.51Q114.59 6.73 114.04 7.01L114.04 7.01L114.04 7.01Q113.48 7.28 113.12 7.59L113.12 7.59L113.12 7.59Q112.99 7.50 112.86 7.34L112.86 7.34L112.86 7.34Q112.73 7.17 112.62 6.96L112.62 6.96L112.62 6.96Q112.50 6.76 112.42 6.55L112.42 6.55L112.42 6.55Q112.34 6.34 112.32 6.17L112.32 6.17L112.32 6.17Q112.74 5.89 113.35 5.66L113.35 5.66L113.35 5.66Q113.96 5.42 114.65 5.24L114.65 5.24L114.65 5.24Q115.33 5.07 116.05 4.97L116.05 4.97L116.05 4.97Q116.76 4.87 117.38 4.87L117.38 4.87L117.38 4.87Q119.06 4.87 119.98 5.56L119.98 5.56L119.98 5.56Q120.90 6.26 120.90 7.46ZM117.32 6.02L117.49 6.29L117.49 6.29Q117.39 6.41 117.18 6.79L117.18 6.79L117.18 6.79Q116.97 7.17 116.70 7.69L116.70 7.69L116.70 7.69Q116.42 8.22 116.12 8.83L116.12 8.83L116.12 8.83Q115.82 9.45 115.54 10.05L115.54 10.05L115.54 10.05Q116.59 10.05 117.47 9.86L117.47 9.86L117.47 9.86Q118.36 9.66 119.00 9.30L119.00 9.30L119.00 9.30Q119.64 8.95 120.00 8.46L120.00 8.46L120.00 8.46Q120.36 7.98 120.36 7.39L120.36 7.39L120.36 7.39Q120.36 6.69 119.85 6.32L119.85 6.32L119.85 6.32Q119.35 5.95 118.30 5.95L118.30 5.95L118.30 5.95Q118.06 5.95 117.82 5.97L117.82 5.97L117.82 5.97Q117.59 5.99 117.32 6.02L117.32 6.02ZM133.32 5.75L133.32 5.75L133.32 5.75Q132.71 6.58 132.20 7.57L132.20 7.57L132.20 7.57Q131.70 8.57 131.34 9.61L131.34 9.61L131.34 9.61Q130.98 10.65 130.79 11.67L130.79 11.67L130.79 11.67Q130.61 12.68 130.61 13.57L130.61 13.57L130.61 13.57Q130.61 14.66 130.93 15.15L130.93 15.15L130.93 15.15Q131.25 15.64 132.03 15.64L132.03 15.64L132.03 15.64Q132.94 15.64 133.63 15.00L133.63 15.00L133.63 15.00Q134.32 14.36 134.92 13.24L134.92 13.24L134.92 13.24Q135.31 12.52 135.59 11.65L135.59 11.65L135.59 11.65Q135.87 10.78 136.04 9.86L136.04 9.86L136.04 9.86Q136.22 8.95 136.30 8.02L136.30 8.02L136.30 8.02Q136.39 7.08 136.39 6.23L136.39 6.23L136.39 6.23Q136.39 5.68 136.37 5.43L136.37 5.43L136.37 5.43Q136.36 5.18 136.33 5.03L136.33 5.03L136.33 5.03Q136.37 5.03 136.54 5.05L136.54 5.05L136.54 5.05Q136.71 5.08 136.93 5.12L136.93 5.12L136.93 5.12Q137.14 5.17 137.36 5.24L137.36 5.24L137.36 5.24Q137.58 5.31 137.73 5.39L137.73 5.39L137.73 5.39Q137.66 6.45 137.47 7.59L137.47 7.59L137.47 7.59Q137.28 8.72 136.98 9.83L136.98 9.83L136.98 9.83Q136.67 10.93 136.26 11.96L136.26 11.96L136.26 11.96Q135.86 12.98 135.35 13.79L135.35 13.79L135.35 13.79Q134.61 14.99 133.69 15.67L133.69 15.67L133.69 15.67Q132.76 16.35 131.50 16.35L131.50 16.35L131.50 16.35Q130.21 16.35 129.50 15.60L129.50 15.60L129.50 15.60Q128.79 14.85 128.79 13.33L128.79 13.33L128.79 13.33Q128.79 12.45 128.98 11.33L128.98 11.33L128.98 11.33Q129.18 10.22 129.51 9.07L129.51 9.07L129.51 9.07Q129.84 7.91 130.27 6.81L130.27 6.81L130.27 6.81Q130.70 5.71 131.18 4.84L131.18 4.84L131.18 4.84Q131.42 4.86 131.74 4.94L131.74 4.94L131.74 4.94Q132.06 5.03 132.37 5.16L132.37 5.16L132.37 5.16Q132.68 5.29 132.94 5.45L132.94 5.45L132.94 5.45Q133.20 5.61 133.32 5.75ZM153.83 5.74L153.83 5.74L153.83 5.74Q153.87 5.98 153.89 6.07L153.89 6.07L153.89 6.07Q153.92 6.16 153.92 6.31L153.92 6.31L153.92 6.31Q153.92 6.78 153.71 7.18L153.71 7.18L153.71 7.18Q153.51 7.57 153.16 7.74L153.16 7.74L153.16 7.74Q152.88 7.36 152.47 7.09L152.47 7.09L152.47 7.09Q152.07 6.82 151.58 6.64L151.58 6.64L151.58 6.64Q151.10 6.47 150.58 6.38L150.58 6.38L150.58 6.38Q150.07 6.30 149.58 6.30L149.58 6.30L149.58 6.30Q149.09 6.30 148.66 6.38L148.66 6.38L148.66 6.38Q148.23 6.45 147.90 6.59L147.90 6.59L147.90 6.59Q147.57 6.72 147.38 6.92L147.38 6.92L147.38 6.92Q147.20 7.11 147.20 7.36L147.20 7.36L147.20 7.36Q147.24 7.67 147.57 7.99L147.57 7.99L147.57 7.99Q147.91 8.30 148.40 8.60L148.40 8.60L148.40 8.60Q148.89 8.90 149.48 9.20L149.48 9.20L149.48 9.20Q150.08 9.49 150.65 9.76L150.65 9.76L150.65 9.76Q151.37 10.09 151.89 10.38L151.89 10.38L151.89 10.38Q152.40 10.67 152.74 11.01L152.74 11.01L152.74 11.01Q153.08 11.35 153.24 11.79L153.24 11.79L153.24 11.79Q153.41 12.22 153.41 12.84L153.41 12.84L153.41 12.84Q153.41 13.55 153.17 14.18L153.17 14.18L153.17 14.18Q152.94 14.80 152.48 15.26L152.48 15.26L152.48 15.26Q152.03 15.72 151.38 15.98L151.38 15.98L151.38 15.98Q150.74 16.24 149.94 16.24L149.94 16.24L149.94 16.24Q149.16 16.24 148.25 16.00L148.25 16.00L148.25 16.00Q147.34 15.76 146.54 15.35L146.54 15.35L146.54 15.35Q145.75 14.94 145.23 14.40L145.23 14.40L145.23 14.40Q144.70 13.86 144.70 13.26L144.70 13.26L144.70 13.26Q144.70 12.98 144.86 12.54L144.86 12.54L144.86 12.54Q145.03 12.11 145.45 11.63L145.45 11.63L145.45 11.63Q145.49 12.05 145.90 12.63L145.90 12.63L145.90 12.63Q146.31 13.20 147.14 13.69L147.14 13.69L147.14 13.69Q147.91 14.14 148.73 14.34L148.73 14.34L148.73 14.34Q149.55 14.55 150.26 14.55L150.26 14.55L150.26 14.55Q151.05 14.55 151.54 14.35L151.54 14.35L151.54 14.35Q152.03 14.15 152.31 13.88L152.31 13.88L152.31 13.88Q152.59 13.61 152.70 13.33L152.70 13.33L152.70 13.33Q152.81 13.05 152.82 12.88L152.82 12.88L152.82 12.88Q152.81 12.60 152.56 12.34L152.56 12.34L152.56 12.34Q152.32 12.08 151.91 11.84L151.91 11.84L151.91 11.84Q151.49 11.59 150.95 11.34L150.95 11.34L150.95 11.34Q150.40 11.09 149.81 10.84L149.81 10.84L149.81 10.84Q148.93 10.44 148.29 10.10L148.29 10.10L148.29 10.10Q147.66 9.76 147.25 9.40L147.25 9.40L147.25 9.40Q146.83 9.04 146.64 8.65L146.64 8.65L146.64 8.65Q146.45 8.26 146.45 7.76L146.45 7.76L146.45 7.76Q146.45 6.97 146.93 6.27L146.93 6.27L146.93 6.27Q147.41 5.57 148.30 5.21L148.30 5.21L148.30 5.21Q148.75 5.01 149.26 4.93L149.26 4.93L149.26 4.93Q149.77 4.84 150.26 4.84L150.26 4.84L150.26 4.84Q151.19 4.84 152.07 5.10L152.07 5.10L152.07 5.10Q152.95 5.35 153.83 5.74ZM163.81 6.69L163.81 6.69L163.81 6.69Q163.25 6.69 162.95 6.38L162.95 6.38L162.95 6.38Q162.65 6.06 162.65 5.61L162.65 5.61L162.65 5.61Q162.65 5.50 162.69 5.35L162.69 5.35L162.69 5.35Q162.72 5.19 162.78 5.08L162.78 5.08L162.78 5.08Q162.96 5.17 163.32 5.20L163.32 5.20L163.32 5.20Q163.67 5.24 164.15 5.24L164.15 5.24L164.15 5.24Q164.86 5.24 165.77 5.17L165.77 5.17L165.77 5.17Q166.67 5.11 167.50 5.04L167.50 5.04L167.50 5.04Q168.32 4.97 168.95 4.91L168.95 4.91L168.95 4.91Q169.58 4.84 169.76 4.84L169.76 4.84L169.76 4.84Q170.28 4.84 170.51 5.23L170.51 5.23L170.51 5.23Q170.74 5.61 170.86 6.26L170.86 6.26L170.86 6.26Q170.49 6.23 170.13 6.21L170.13 6.21L170.13 6.21Q169.78 6.19 169.53 6.19L169.53 6.19L169.53 6.19Q169.08 6.19 168.62 6.22L168.62 6.22L168.62 6.22Q168.17 6.24 167.71 6.30L167.71 6.30L167.71 6.30Q167.51 6.71 167.27 7.26L167.27 7.26L167.27 7.26Q167.03 7.81 166.80 8.41L166.80 8.41L166.80 8.41Q166.57 9.02 166.36 9.61L166.36 9.61L166.36 9.61Q166.15 10.21 166.00 10.68L166.00 10.68L166.00 10.68Q165.69 11.61 165.46 12.39L165.46 12.39L165.46 12.39Q165.23 13.17 165.05 13.85L165.05 13.85L165.05 13.85Q164.88 14.53 164.75 15.15L164.75 15.15L164.75 15.15Q164.63 15.76 164.53 16.35L164.53 16.35L164.53 16.35Q163.59 16.21 162.96 15.18L162.96 15.18L162.96 15.18Q163.07 14.74 163.23 14.23L163.23 14.23L163.23 14.23Q163.39 13.72 163.61 13.07L163.61 13.07L163.61 13.07Q163.83 12.42 164.12 11.59L164.12 11.59L164.12 11.59Q164.42 10.77 164.79 9.72L164.79 9.72L164.79 9.72Q164.93 9.32 165.09 8.90L165.09 8.90L165.09 8.90Q165.24 8.47 165.39 8.05L165.39 8.05L165.39 8.05Q165.54 7.63 165.65 7.24L165.65 7.24L165.65 7.24Q165.77 6.85 165.86 6.52L165.86 6.52L165.86 6.52Q165.27 6.59 164.74 6.64L164.74 6.64L164.74 6.64Q164.22 6.69 163.81 6.69ZM174.36 17.54L174.36 17.54L174.36 17.54Q174.27 17.47 174.20 17.31L174.20 17.31L174.20 17.31Q174.13 17.15 174.13 17.01L174.13 17.01L174.13 17.01Q174.83 16.41 175.13 15.86L175.13 15.86L175.13 15.86Q175.43 15.32 175.43 14.67L175.43 14.67L175.43 14.67Q175.43 14.25 175.40 13.95L175.40 13.95L175.40 13.95Q175.36 13.65 175.27 13.26L175.27 13.26L175.27 13.26Q175.62 13.29 175.96 13.38L175.96 13.38L175.96 13.38Q176.30 13.47 176.57 13.60L176.57 13.60L176.57 13.60Q176.85 13.73 177.03 13.91L177.03 13.91L177.03 13.91Q177.21 14.08 177.25 14.25L177.25 14.25L177.25 14.25Q176.60 16.58 174.36 17.54ZM192.84 4.98L192.84 4.98L192.84 4.98Q193.07 5.10 193.34 5.27L193.34 5.27L193.34 5.27Q193.61 5.45 193.83 5.63L193.83 5.63L193.83 5.63Q194.05 5.82 194.21 6.00L194.21 6.00L194.21 6.00Q194.36 6.17 194.36 6.27L194.36 6.27L194.36 6.27Q194.17 6.23 193.94 6.20L193.94 6.20L193.94 6.20Q193.70 6.17 193.49 6.17L193.49 6.17L193.49 6.17Q192.74 6.17 192.02 6.50L192.02 6.50L192.02 6.50Q191.31 6.83 190.67 7.45L190.67 7.45L190.67 7.45Q190.02 8.06 189.48 8.95L189.48 8.95L189.48 8.95Q188.94 9.84 188.55 10.96L188.55 10.96L188.55 10.96Q188.23 11.90 188.03 12.82L188.03 12.82L188.03 12.82Q187.84 13.73 187.84 14.35L187.84 14.35L187.84 14.35Q187.84 15.13 188.16 15.16L188.16 15.16L188.16 15.16Q188.24 15.16 188.45 15.20L188.45 15.20L188.45 15.20Q188.65 15.23 188.88 15.29L188.88 15.29L188.88 15.29Q189.11 15.34 189.34 15.41L189.34 15.41L189.34 15.41Q189.57 15.47 189.73 15.53L189.73 15.53L189.73 15.53Q190.26 15.50 190.97 15.04L190.97 15.04L190.97 15.04Q191.69 14.57 192.37 13.80L192.37 13.80L192.37 13.80Q192.98 13.13 193.46 12.33L193.46 12.33L193.46 12.33Q193.94 11.52 194.28 10.63L194.28 10.63L194.28 10.63Q194.61 9.74 194.79 8.81L194.79 8.81L194.79 8.81Q194.96 7.87 194.96 6.94L194.96 6.94L194.96 6.94Q194.96 6.66 194.95 6.40L194.95 6.40L194.95 6.40Q194.94 6.13 194.91 6.03L194.91 6.03L194.91 6.03Q195.48 6.31 195.72 6.69L195.72 6.69L195.72 6.69Q195.96 7.07 195.96 7.66L195.96 7.66L195.96 7.66Q195.96 8.50 195.69 9.46L195.69 9.46L195.69 9.46Q195.43 10.43 194.96 11.40L194.96 11.40L194.96 11.40Q194.49 12.36 193.84 13.25L193.84 13.25L193.84 13.25Q193.20 14.14 192.44 14.84L192.44 14.84L192.44 14.84Q191.45 15.76 190.82 15.88L190.82 15.88L190.82 15.88Q191.20 16.07 191.69 16.30L191.69 16.30L191.69 16.30Q192.18 16.53 192.64 16.74L192.64 16.74L192.64 16.74Q193.10 16.94 193.47 17.08L193.47 17.08L193.47 17.08Q193.83 17.22 193.96 17.23L193.96 17.23L193.96 17.23Q194.10 17.22 194.32 17.06L194.32 17.06L194.32 17.06Q194.54 16.90 194.70 16.67L194.70 16.67L194.70 16.67Q194.77 16.76 194.83 16.90L194.83 16.90L194.83 16.90Q194.89 17.04 194.91 17.11L194.91 17.11L194.91 17.11Q194.85 17.30 194.68 17.56L194.68 17.56L194.68 17.56Q194.50 17.82 194.28 18.07L194.28 18.07L194.28 18.07Q194.05 18.31 193.82 18.49L193.82 18.49L193.82 18.49Q193.59 18.68 193.42 18.72L193.42 18.72L193.42 18.72Q193.19 18.70 192.98 18.66L192.98 18.66L192.98 18.66Q192.78 18.61 192.54 18.50L192.54 18.50L192.54 18.50Q192.30 18.40 192.01 18.21L192.01 18.21L192.01 18.21Q191.72 18.02 191.28 17.72L191.28 17.72L191.28 17.72Q190.51 17.19 189.94 16.84L189.94 16.84L189.94 16.84Q189.36 16.49 188.89 16.28L188.89 16.28L188.89 16.28Q188.41 16.07 187.99 15.99L187.99 15.99L187.99 15.99Q187.57 15.90 187.12 15.90L187.12 15.90L187.12 15.90Q185.56 15.90 185.39 16.95L185.39 16.95L185.39 16.95Q185.18 16.86 185.15 16.69L185.15 16.69L185.15 16.69Q185.23 15.97 185.68 15.60L185.68 15.60L185.68 15.60Q186.12 15.22 187.04 15.11L187.04 15.11L187.04 15.11Q186.40 14.55 186.40 13.15L186.40 13.15L186.40 13.15Q186.40 12.17 186.63 11.16L186.63 11.16L186.63 11.16Q186.86 10.16 187.26 9.24L187.26 9.24L187.26 9.24Q187.66 8.32 188.20 7.51L188.20 7.51L188.20 7.51Q188.73 6.71 189.36 6.10L189.36 6.10L189.36 6.10Q189.98 5.50 190.65 5.16L190.65 5.16L190.65 5.16Q191.32 4.82 191.98 4.82L191.98 4.82L191.98 4.82Q192.22 4.82 192.42 4.86L192.42 4.86L192.42 4.86Q192.63 4.90 192.84 4.98ZM208.33 5.75L208.33 5.75L208.33 5.75Q207.72 6.58 207.21 7.57L207.21 7.57L207.21 7.57Q206.71 8.57 206.35 9.61L206.35 9.61L206.35 9.61Q206.00 10.65 205.81 11.67L205.81 11.67L205.81 11.67Q205.62 12.68 205.62 13.57L205.62 13.57L205.62 13.57Q205.62 14.66 205.94 15.15L205.94 15.15L205.94 15.15Q206.26 15.64 207.05 15.64L207.05 15.64L207.05 15.64Q207.96 15.64 208.64 15.00L208.64 15.00L208.64 15.00Q209.33 14.36 209.93 13.24L209.93 13.24L209.93 13.24Q210.32 12.52 210.60 11.65L210.60 11.65L210.60 11.65Q210.88 10.78 211.06 9.86L211.06 9.86L211.06 9.86Q211.23 8.95 211.32 8.02L211.32 8.02L211.32 8.02Q211.40 7.08 211.40 6.23L211.40 6.23L211.40 6.23Q211.40 5.68 211.39 5.43L211.39 5.43L211.39 5.43Q211.37 5.18 211.34 5.03L211.34 5.03L211.34 5.03Q211.39 5.03 211.55 5.05L211.55 5.05L211.55 5.05Q211.72 5.08 211.94 5.12L211.94 5.12L211.94 5.12Q212.16 5.17 212.37 5.24L212.37 5.24L212.37 5.24Q212.59 5.31 212.74 5.39L212.74 5.39L212.74 5.39Q212.67 6.45 212.49 7.59L212.49 7.59L212.49 7.59Q212.30 8.72 211.99 9.83L211.99 9.83L211.99 9.83Q211.68 10.93 211.27 11.96L211.27 11.96L211.27 11.96Q210.87 12.98 210.36 13.79L210.36 13.79L210.36 13.79Q209.62 14.99 208.70 15.67L208.70 15.67L208.70 15.67Q207.77 16.35 206.51 16.35L206.51 16.35L206.51 16.35Q205.23 16.35 204.51 15.60L204.51 15.60L204.51 15.60Q203.80 14.85 203.80 13.33L203.80 13.33L203.80 13.33Q203.80 12.45 203.99 11.33L203.99 11.33L203.99 11.33Q204.19 10.22 204.52 9.07L204.52 9.07L204.52 9.07Q204.85 7.91 205.28 6.81L205.28 6.81L205.28 6.81Q205.72 5.71 206.19 4.84L206.19 4.84L206.19 4.84Q206.43 4.86 206.75 4.94L206.75 4.94L206.75 4.94Q207.07 5.03 207.38 5.16L207.38 5.16L207.38 5.16Q207.69 5.29 207.95 5.45L207.95 5.45L207.95 5.45Q208.21 5.61 208.33 5.75ZM220.35 16.24L220.35 16.24L220.35 16.24Q219.67 16.04 219.42 15.85L219.42 15.85L219.42 15.85Q219.16 15.65 219.16 15.36L219.16 15.36L219.16 15.36Q219.16 15.13 219.28 14.73L219.28 14.73L219.28 14.73Q219.41 14.32 219.65 13.77L219.65 13.77L219.65 13.77Q219.90 13.22 220.24 12.54L220.24 12.54L220.24 12.54Q220.58 11.87 221.02 11.10L221.02 11.10L221.02 11.10Q220.65 11.09 220.37 11.08L220.37 11.08L220.37 11.08Q220.08 11.07 219.90 11.07L219.90 11.07L219.90 11.07Q219.98 10.86 220.37 10.71L220.37 10.71L220.37 10.71Q220.77 10.56 221.41 10.44L221.41 10.44L221.41 10.44Q221.96 9.53 222.58 8.71L222.58 8.71L222.58 8.71Q223.20 7.88 223.83 7.19L223.83 7.19L223.83 7.19Q224.46 6.50 225.09 5.97L225.09 5.97L225.09 5.97Q225.72 5.45 226.30 5.14L226.30 5.14L226.30 5.14Q226.31 5.04 226.32 4.97L226.32 4.97L226.32 4.97Q226.32 4.90 226.32 4.87L226.32 4.87L226.32 4.87Q226.52 4.87 226.85 4.97L226.85 4.97L226.85 4.97Q227.18 5.07 227.49 5.21L227.49 5.21L227.49 5.21Q227.81 5.35 228.05 5.49L228.05 5.49L228.05 5.49Q228.30 5.64 228.33 5.74L228.33 5.74L228.33 5.74Q227.86 6.55 227.42 8.17L227.42 8.17L227.42 8.17Q226.97 9.79 226.67 12.04L226.67 12.04L226.67 12.04Q226.60 12.60 226.56 13.31L226.56 13.31L226.56 13.31Q226.51 14.03 226.51 14.91L226.51 14.91L226.51 14.91Q226.51 15.22 226.51 15.54L226.51 15.54L226.51 15.54Q226.51 15.86 226.53 16.21L226.53 16.21L226.53 16.21Q226.51 16.23 226.48 16.23L226.48 16.23L226.48 16.23Q226.45 16.23 226.37 16.23L226.37 16.23L226.37 16.23Q226.17 16.23 225.91 16.16L225.91 16.16L225.91 16.16Q225.65 16.10 225.41 16.01L225.41 16.01L225.41 16.01Q225.16 15.92 224.99 15.81L224.99 15.81L224.99 15.81Q224.81 15.69 224.77 15.61L224.77 15.61L224.77 15.61Q224.76 15.43 224.76 15.25L224.76 15.25L224.76 15.25Q224.76 15.08 224.76 14.88L224.76 14.88L224.76 14.88Q224.76 14.01 224.82 13.12L224.82 13.12L224.82 13.12Q224.88 12.22 225.04 11.27L225.04 11.27L225.04 11.27Q224.84 11.26 224.52 11.23L224.52 11.23L224.52 11.23Q224.20 11.21 223.80 11.20L223.80 11.20L223.80 11.20Q223.40 11.19 222.94 11.16L222.94 11.16L222.94 11.16Q222.49 11.14 222.05 11.13L222.05 11.13L222.05 11.13Q221.72 11.76 221.42 12.38L221.42 12.38L221.42 12.38Q221.13 13.01 220.92 13.64L220.92 13.64L220.92 13.64Q220.68 14.31 220.54 14.98L220.54 14.98L220.54 14.98Q220.39 15.65 220.35 16.24ZM225.75 7.83L225.75 7.83L225.75 7.83Q225.81 7.63 225.88 7.29L225.88 7.29L225.88 7.29Q225.96 6.94 226.03 6.57L226.03 6.57L226.03 6.57Q225.68 6.69 225.25 7.03L225.25 7.03L225.25 7.03Q224.83 7.36 224.37 7.86L224.37 7.86L224.37 7.86Q223.92 8.36 223.45 8.98L223.45 8.98L223.45 8.98Q222.98 9.60 222.54 10.30L222.54 10.30L222.54 10.30Q223.72 10.21 225.22 10.18L225.22 10.18L225.22 10.18Q225.33 9.59 225.46 9.01L225.46 9.01L225.46 9.01Q225.60 8.43 225.75 7.83ZM240.91 14.38L240.91 14.38L240.91 14.38Q241.26 14.98 241.26 15.54L241.26 15.54L241.26 15.54Q241.26 15.67 241.24 15.77L241.24 15.77L241.24 15.77Q241.22 15.88 241.19 15.99L241.19 15.99L241.19 15.99Q240.95 15.96 240.70 15.95L240.70 15.95L240.70 15.95Q240.44 15.93 240.16 15.93L240.16 15.93L240.16 15.93Q239.82 15.93 239.48 15.95L239.48 15.95L239.48 15.95Q239.13 15.97 238.71 16.02L238.71 16.02L238.71 16.02Q238.29 16.06 237.78 16.13L237.78 16.13L237.78 16.13Q237.26 16.20 236.57 16.31L236.57 16.31L236.57 16.31Q236.25 16.20 235.93 15.87L235.93 15.87L235.93 15.87Q235.61 15.54 235.33 15.08L235.33 15.08L235.33 15.08Q235.47 14.77 235.68 14.31L235.68 14.31L235.68 14.31Q235.89 13.86 236.17 13.21L236.17 13.21L236.17 13.21Q236.45 12.56 236.79 11.68L236.79 11.68L236.79 11.68Q237.13 10.81 237.52 9.66L237.52 9.66L237.52 9.66Q237.78 8.90 237.96 8.33L237.96 8.33L237.96 8.33Q238.14 7.76 238.29 7.22L238.29 7.22L238.29 7.22Q238.43 6.68 238.57 6.09L238.57 6.09L238.57 6.09Q238.71 5.50 238.88 4.73L238.88 4.73L238.88 4.73Q239.44 4.84 239.86 5.14L239.86 5.14L239.86 5.14Q240.27 5.45 240.65 6.01L240.65 6.01L240.65 6.01Q240.53 6.19 240.35 6.59L240.35 6.59L240.35 6.59Q240.17 7 239.93 7.58L239.93 7.58L239.93 7.58Q239.68 8.16 239.39 8.90L239.39 8.90L239.39 8.90Q239.09 9.63 238.77 10.47L238.77 10.47L238.77 10.47Q238.46 11.30 238.17 12.03L238.17 12.03L238.17 12.03Q237.87 12.75 237.64 13.34L237.64 13.34L237.64 13.34Q237.41 13.93 237.27 14.35L237.27 14.35L237.27 14.35Q237.13 14.77 237.13 14.98L237.13 14.98L237.13 14.98Q237.36 14.97 237.54 14.95L237.54 14.95L237.54 14.95Q237.72 14.94 237.92 14.90L237.92 14.90L237.92 14.90Q238.11 14.87 238.34 14.82L238.34 14.82L238.34 14.82Q238.57 14.77 238.90 14.69L238.90 14.69L238.90 14.69Q239.18 14.62 239.41 14.57L239.41 14.57L239.41 14.57Q239.65 14.52 239.88 14.48L239.88 14.48L239.88 14.48Q240.11 14.45 240.36 14.43L240.36 14.43L240.36 14.43Q240.60 14.41 240.91 14.38ZM249.87 14.38L249.87 14.38L249.87 14.38Q249.87 13.87 250.03 13.07L250.03 13.07L250.03 13.07Q250.19 12.26 250.45 11.33L250.45 11.33L250.45 11.33Q250.71 10.40 251.05 9.43L251.05 9.43L251.05 9.43Q251.38 8.46 251.73 7.60L251.73 7.60L251.73 7.60Q252.08 6.75 252.42 6.10L252.42 6.10L252.42 6.10Q252.76 5.46 253.02 5.18L253.02 5.18L253.02 5.18Q253.16 5.19 253.39 5.29L253.39 5.29L253.39 5.29Q253.62 5.38 253.86 5.50L253.86 5.50L253.86 5.50Q254.10 5.63 254.30 5.78L254.30 5.78L254.30 5.78Q254.49 5.92 254.55 6.05L254.55 6.05L254.55 6.05Q254.14 6.41 253.74 7.15L253.74 7.15L253.74 7.15Q253.34 7.88 252.97 8.82L252.97 8.82L252.97 8.82Q252.60 9.76 252.28 10.80L252.28 10.80L252.28 10.80Q251.96 11.84 251.72 12.82L251.72 12.82L251.72 12.82Q251.48 13.80 251.35 14.64L251.35 14.64L251.35 14.64Q251.22 15.48 251.22 16.00L251.22 16.00L251.22 16.00Q251.22 16.24 251.26 16.30L251.26 16.30L251.26 16.30Q250.95 16.28 250.81 16.19L250.81 16.19L250.81 16.19Q250.67 16.10 250.59 16.00L250.59 16.00L250.59 16.00Q250.52 15.89 250.45 15.79L250.45 15.79L250.45 15.79Q250.39 15.68 250.26 15.62L250.26 15.62L250.26 15.62Q250.17 15.58 250.10 15.43L250.10 15.43L250.10 15.43Q250.03 15.27 249.98 15.09L249.98 15.09L249.98 15.09Q249.93 14.90 249.90 14.70L249.90 14.70L249.90 14.70Q249.87 14.50 249.87 14.38ZM263.63 6.69L263.63 6.69L263.63 6.69Q263.07 6.69 262.77 6.38L262.77 6.38L262.77 6.38Q262.47 6.06 262.47 5.61L262.47 5.61L262.47 5.61Q262.47 5.50 262.51 5.35L262.51 5.35L262.51 5.35Q262.54 5.19 262.60 5.08L262.60 5.08L262.60 5.08Q262.78 5.17 263.14 5.20L263.14 5.20L263.14 5.20Q263.49 5.24 263.97 5.24L263.97 5.24L263.97 5.24Q264.68 5.24 265.59 5.17L265.59 5.17L265.59 5.17Q266.49 5.11 267.32 5.04L267.32 5.04L267.32 5.04Q268.14 4.97 268.77 4.91L268.77 4.91L268.77 4.91Q269.40 4.84 269.58 4.84L269.58 4.84L269.58 4.84Q270.10 4.84 270.33 5.23L270.33 5.23L270.33 5.23Q270.56 5.61 270.68 6.26L270.68 6.26L270.68 6.26Q270.31 6.23 269.95 6.21L269.95 6.21L269.95 6.21Q269.60 6.19 269.35 6.19L269.35 6.19L269.35 6.19Q268.90 6.19 268.44 6.22L268.44 6.22L268.44 6.22Q267.99 6.24 267.53 6.30L267.53 6.30L267.53 6.30Q267.33 6.71 267.09 7.26L267.09 7.26L267.09 7.26Q266.85 7.81 266.62 8.41L266.62 8.41L266.62 8.41Q266.39 9.02 266.18 9.61L266.18 9.61L266.18 9.61Q265.97 10.21 265.82 10.68L265.82 10.68L265.82 10.68Q265.51 11.61 265.28 12.39L265.28 12.39L265.28 12.39Q265.05 13.17 264.87 13.85L264.87 13.85L264.87 13.85Q264.70 14.53 264.57 15.15L264.57 15.15L264.57 15.15Q264.45 15.76 264.35 16.35L264.35 16.35L264.35 16.35Q263.41 16.21 262.78 15.18L262.78 15.18L262.78 15.18Q262.89 14.74 263.05 14.23L263.05 14.23L263.05 14.23Q263.21 13.72 263.43 13.07L263.43 13.07L263.43 13.07Q263.65 12.42 263.94 11.59L263.94 11.59L263.94 11.59Q264.24 10.77 264.61 9.72L264.61 9.72L264.61 9.72Q264.75 9.32 264.91 8.90L264.91 8.90L264.91 8.90Q265.06 8.47 265.21 8.05L265.21 8.05L265.21 8.05Q265.36 7.63 265.47 7.24L265.47 7.24L265.47 7.24Q265.59 6.85 265.68 6.52L265.68 6.52L265.68 6.52Q265.09 6.59 264.56 6.64L264.56 6.64L264.56 6.64Q264.04 6.69 263.63 6.69ZM281.26 10.35L281.26 10.35L281.26 10.35Q282.31 9.20 283.14 7.91L283.14 7.91L283.14 7.91Q283.98 6.62 284.69 5.01L284.69 5.01L284.69 5.01Q285.05 5.05 285.39 5.21L285.39 5.21L285.39 5.21Q285.73 5.36 285.92 5.56L285.92 5.56L285.92 5.56Q285.15 6.48 284.53 7.24L284.53 7.24L284.53 7.24Q283.91 7.99 283.39 8.66L283.39 8.66L283.39 8.66Q282.87 9.32 282.43 9.93L282.43 9.93L282.43 9.93Q281.99 10.54 281.57 11.16L281.57 11.16L281.57 11.16Q281.36 11.87 281.18 12.60L281.18 12.60L281.18 12.60Q280.99 13.33 280.85 13.99L280.85 13.99L280.85 13.99Q280.71 14.66 280.64 15.22L280.64 15.22L280.64 15.22Q280.56 15.79 280.56 16.20L280.56 16.20L280.56 16.20Q280.41 16.20 280.07 16.14L280.07 16.14L280.07 16.14Q279.73 16.07 279.38 15.99L279.38 15.99L279.38 15.99Q279.03 15.90 278.75 15.82L278.75 15.82L278.75 15.82Q278.46 15.74 278.40 15.68L278.40 15.68L278.40 15.68Q278.63 15.30 278.84 14.75L278.84 14.75L278.84 14.75Q279.06 14.20 279.27 13.59L279.27 13.59L279.27 13.59Q279.48 12.98 279.68 12.36L279.68 12.36L279.68 12.36Q279.87 11.73 280.04 11.20L280.04 11.20L280.04 11.20Q279.69 10.11 279.36 9.15L279.36 9.15L279.36 9.15Q279.03 8.19 278.73 7.41L278.73 7.41L278.73 7.41Q278.42 6.64 278.14 6.08L278.14 6.08L278.14 6.08Q277.86 5.52 277.61 5.22L277.61 5.22L277.61 5.22Q277.75 5.17 278.03 5.11L278.03 5.11L278.03 5.11Q278.32 5.05 278.66 5.00L278.66 5.00L278.66 5.00Q279.01 4.94 279.36 4.91L279.36 4.91L279.36 4.91Q279.72 4.87 280.00 4.86L280.00 4.86L280.00 4.86Q280.00 5.21 280.06 5.71L280.06 5.71L280.06 5.71Q280.13 6.22 280.23 6.79L280.23 6.79L280.23 6.79Q280.34 7.36 280.48 7.95L280.48 7.95L280.48 7.95Q280.62 8.54 280.76 9.03L280.76 9.03L280.76 9.03Q280.90 9.52 281.03 9.88L281.03 9.88L281.03 9.88Q281.16 10.23 281.26 10.35ZM308.87 10.53L308.87 10.53L308.87 10.53Q308.36 10.53 308.14 10.37L308.14 10.37L308.14 10.37Q307.92 10.21 307.92 9.86L307.92 9.86L307.92 9.86Q307.92 9.63 308.00 9.34L308.00 9.34L308.00 9.34Q308.27 9.38 308.51 9.39L308.51 9.39L308.51 9.39Q308.76 9.41 309.11 9.41L309.11 9.41L309.11 9.41Q309.55 9.41 309.85 9.40L309.85 9.40L309.85 9.40Q310.16 9.39 310.36 9.38L310.36 9.38L310.36 9.38Q310.56 9.37 310.68 9.36L310.68 9.36L310.68 9.36Q310.80 9.35 310.90 9.35L310.90 9.35L310.90 9.35Q311.23 9.35 311.39 9.60L311.39 9.60L311.39 9.60Q311.54 9.84 311.68 10.43L311.68 10.43L311.68 10.43Q311.28 10.39 311.02 10.37L311.02 10.37L311.02 10.37Q310.76 10.36 310.56 10.36L310.56 10.36L310.56 10.36Q310.42 10.36 310.31 10.37L310.31 10.37L310.31 10.37Q310.20 10.37 310.10 10.37L310.10 10.37L310.10 10.37Q309.61 11.16 308.97 12.06L308.97 12.06L308.97 12.06Q308.34 12.96 307.60 13.78L307.60 13.78L307.60 13.78Q306.87 14.59 306.07 15.22L306.07 15.22L306.07 15.22Q305.27 15.86 304.47 16.11L304.47 16.11L304.47 16.11Q303.93 16.06 303.48 15.85L303.48 15.85L303.48 15.85Q303.03 15.64 302.69 15.32L302.69 15.32L302.69 15.32Q302.36 15.01 302.16 14.60L302.16 14.60L302.16 14.60Q301.97 14.18 301.94 13.71L301.94 13.71L301.94 13.71Q301.95 13.05 302.21 12.40L302.21 12.40L302.21 12.40Q302.47 11.75 302.88 11.19L302.88 11.19L302.88 11.19Q303.28 10.63 303.79 10.18L303.79 10.18L303.79 10.18Q304.30 9.73 304.82 9.46L304.82 9.46L304.82 9.46Q304.30 9.24 304.09 8.93L304.09 8.93L304.09 8.93Q303.87 8.62 303.87 8.26L303.87 8.26L303.87 8.26Q303.87 7.76 304.23 7.20L304.23 7.20L304.23 7.20Q304.58 6.65 305.12 6.17L305.12 6.17L305.12 6.17Q305.65 5.70 306.26 5.36L306.26 5.36L306.26 5.36Q306.87 5.01 307.37 4.93L307.37 4.93L307.37 4.93Q307.51 4.96 307.77 5.10L307.77 5.10L307.77 5.10Q308.03 5.25 308.28 5.46L308.28 5.46L308.28 5.46Q308.53 5.67 308.73 5.89L308.73 5.89L308.73 5.89Q308.94 6.10 308.97 6.26L308.97 6.26L308.97 6.26Q308.94 6.43 308.85 6.64L308.85 6.64L308.85 6.64Q308.76 6.85 308.62 7.05L308.62 7.05L308.62 7.05Q308.48 7.25 308.32 7.43L308.32 7.43L308.32 7.43Q308.17 7.62 308.01 7.73L308.01 7.73L308.01 7.73Q307.87 7.69 307.85 7.59L307.85 7.59L307.85 7.59Q308.01 7.42 308.17 7.11L308.17 7.11L308.17 7.11Q308.32 6.79 308.32 6.51L308.32 6.51L308.32 6.51Q308.32 6.36 308.25 6.31L308.25 6.31L308.25 6.31Q308.18 6.26 308.03 6.26L308.03 6.26L308.03 6.26Q307.64 6.26 307.16 6.57L307.16 6.57L307.16 6.57Q306.68 6.87 306.27 7.34L306.27 7.34L306.27 7.34Q305.86 7.80 305.58 8.32L305.58 8.32L305.58 8.32Q305.30 8.85 305.30 9.28L305.30 9.28L305.30 9.28Q305.45 9.30 305.67 9.37L305.67 9.37L305.67 9.37Q305.89 9.45 306.10 9.56L306.10 9.56L306.10 9.56Q306.31 9.67 306.47 9.80L306.47 9.80L306.47 9.80Q306.63 9.93 306.67 10.02L306.67 10.02L306.67 10.02Q305.98 10.19 305.40 10.68L305.40 10.68L305.40 10.68Q304.82 11.17 304.40 11.80L304.40 11.80L304.40 11.80Q303.98 12.43 303.75 13.12L303.75 13.12L303.75 13.12Q303.52 13.80 303.52 14.35L303.52 14.35L303.52 14.35Q303.52 14.84 303.73 15.15L303.73 15.15L303.73 15.15Q303.94 15.47 304.39 15.47L304.39 15.47L304.39 15.47Q304.77 15.47 305.21 15.22L305.21 15.22L305.21 15.22Q305.65 14.98 306.12 14.57L306.12 14.57L306.12 14.57Q306.59 14.15 307.05 13.63L307.05 13.63L307.05 13.63Q307.52 13.10 307.96 12.55L307.96 12.55L307.96 12.55Q308.41 12.00 308.79 11.46L308.79 11.46L308.79 11.46Q309.18 10.92 309.48 10.47L309.48 10.47L309.48 10.47Q309.36 10.50 309.21 10.51L309.21 10.51L309.21 10.51Q309.06 10.53 308.87 10.53ZM333.89 14.38L333.89 14.38L333.89 14.38Q334.24 14.98 334.24 15.54L334.24 15.54L334.24 15.54Q334.24 15.67 334.21 15.77L334.21 15.77L334.21 15.77Q334.19 15.88 334.17 15.99L334.17 15.99L334.17 15.99Q333.93 15.96 333.67 15.95L333.67 15.95L333.67 15.95Q333.41 15.93 333.13 15.93L333.13 15.93L333.13 15.93Q332.79 15.93 332.45 15.95L332.45 15.95L332.45 15.95Q332.11 15.97 331.69 16.02L331.69 16.02L331.69 16.02Q331.27 16.06 330.75 16.13L330.75 16.13L330.75 16.13Q330.23 16.20 329.55 16.31L329.55 16.31L329.55 16.31Q329.22 16.20 328.90 15.87L328.90 15.87L328.90 15.87Q328.58 15.54 328.30 15.08L328.30 15.08L328.30 15.08Q328.44 14.77 328.65 14.31L328.65 14.31L328.65 14.31Q328.86 13.86 329.14 13.21L329.14 13.21L329.14 13.21Q329.42 12.56 329.76 11.68L329.76 11.68L329.76 11.68Q330.11 10.81 330.50 9.66L330.50 9.66L330.50 9.66Q330.75 8.90 330.93 8.33L330.93 8.33L330.93 8.33Q331.11 7.76 331.26 7.22L331.26 7.22L331.26 7.22Q331.41 6.68 331.55 6.09L331.55 6.09L331.55 6.09Q331.69 5.50 331.86 4.73L331.86 4.73L331.86 4.73Q332.42 4.84 332.83 5.14L332.83 5.14L332.83 5.14Q333.24 5.45 333.62 6.01L333.62 6.01L333.62 6.01Q333.51 6.19 333.33 6.59L333.33 6.59L333.33 6.59Q333.14 7 332.90 7.58L332.90 7.58L332.90 7.58Q332.65 8.16 332.36 8.90L332.36 8.90L332.36 8.90Q332.07 9.63 331.74 10.47L331.74 10.47L331.74 10.47Q331.44 11.30 331.14 12.03L331.14 12.03L331.14 12.03Q330.85 12.75 330.62 13.34L330.62 13.34L330.62 13.34Q330.39 13.93 330.25 14.35L330.25 14.35L330.25 14.35Q330.11 14.77 330.11 14.98L330.11 14.98L330.11 14.98Q330.33 14.97 330.51 14.95L330.51 14.95L330.51 14.95Q330.69 14.94 330.89 14.90L330.89 14.90L330.89 14.90Q331.09 14.87 331.32 14.82L331.32 14.82L331.32 14.82Q331.55 14.77 331.87 14.69L331.87 14.69L331.87 14.69Q332.15 14.62 332.39 14.57L332.39 14.57L332.39 14.57Q332.63 14.52 332.86 14.48L332.86 14.48L332.86 14.48Q333.09 14.45 333.33 14.43L333.33 14.43L333.33 14.43Q333.58 14.41 333.89 14.38ZM348.68 4.98L348.68 4.98L348.68 4.98Q348.95 5.10 349.23 5.27L349.23 5.27L349.23 5.27Q349.51 5.45 349.75 5.63L349.75 5.63L349.75 5.63Q349.99 5.81 350.15 5.98L350.15 5.98L350.15 5.98Q350.31 6.16 350.32 6.27L350.32 6.27L350.32 6.27Q350.08 6.22 349.85 6.20L349.85 6.20L349.85 6.20Q349.61 6.17 349.41 6.17L349.41 6.17L349.41 6.17Q348.78 6.17 348.16 6.48L348.16 6.48L348.16 6.48Q347.54 6.79 346.98 7.32L346.98 7.32L346.98 7.32Q346.42 7.85 345.94 8.57L345.94 8.57L345.94 8.57Q345.46 9.28 345.12 10.09L345.12 10.09L345.12 10.09Q344.78 10.91 344.58 11.77L344.58 11.77L344.58 11.77Q344.39 12.64 344.39 13.48L344.39 13.48L344.39 13.48Q344.39 14.57 344.75 15.11L344.75 15.11L344.75 15.11Q345.11 15.64 345.81 15.64L345.81 15.64L345.81 15.64Q346.15 15.64 346.54 15.51L346.54 15.51L346.54 15.51Q346.93 15.37 347.34 15.13L347.34 15.13L347.34 15.13Q347.75 14.90 348.14 14.56L348.14 14.56L348.14 14.56Q348.53 14.22 348.87 13.82L348.87 13.82L348.87 13.82Q349.36 13.23 349.75 12.48L349.75 12.48L349.75 12.48Q350.14 11.73 350.41 10.89L350.41 10.89L350.41 10.89Q350.69 10.05 350.83 9.16L350.83 9.16L350.83 9.16Q350.98 8.27 350.98 7.42L350.98 7.42L350.98 7.42Q350.98 7.08 350.97 6.85L350.97 6.85L350.97 6.85Q350.95 6.62 350.93 6.46L350.93 6.46L350.93 6.46Q350.91 6.30 350.90 6.20L350.90 6.20L350.90 6.20Q350.88 6.10 350.87 6.03L350.87 6.03L350.87 6.03Q351.04 6.12 351.24 6.24L351.24 6.24L351.24 6.24Q351.44 6.36 351.62 6.59L351.62 6.59L351.62 6.59Q351.79 6.82 351.91 7.20L351.91 7.20L351.91 7.20Q352.03 7.57 352.03 8.18L352.03 8.18L352.03 8.18Q352.03 9.16 351.80 10.10L351.80 10.10L351.80 10.10Q351.57 11.05 351.15 11.90L351.15 11.90L351.15 11.90Q350.74 12.75 350.18 13.50L350.18 13.50L350.18 13.50Q349.62 14.24 348.98 14.80L348.98 14.80L348.98 14.80Q348.14 15.54 347.19 15.95L347.19 15.95L347.19 15.95Q346.23 16.35 345.35 16.35L345.35 16.35L345.35 16.35Q344.06 16.35 343.38 15.53L343.38 15.53L343.38 15.53Q342.71 14.71 342.71 13.12L342.71 13.12L342.71 13.12Q342.71 12.26 342.89 11.31L342.89 11.31L342.89 11.31Q343.08 10.36 343.43 9.44L343.43 9.44L343.43 9.44Q343.77 8.51 344.25 7.68L344.25 7.68L344.25 7.68Q344.72 6.85 345.29 6.21L345.29 6.21L345.29 6.21Q345.86 5.57 346.51 5.19L346.51 5.19L346.51 5.19Q347.16 4.82 347.84 4.82L347.84 4.82L347.84 4.82Q348.07 4.82 348.26 4.85L348.26 4.85L348.26 4.85Q348.46 4.89 348.68 4.98ZM363.59 16.07L363.59 16.07L363.59 16.07Q363.27 16.24 362.91 16.24L362.91 16.24L362.91 16.24Q362.46 16.18 362.05 16.02L362.05 16.02L362.05 16.02Q361.63 15.85 361.44 15.61L361.44 15.61L361.44 15.61Q361.33 14.92 361.26 14.35L361.26 14.35L361.26 14.35Q361.19 13.78 361.14 13.27L361.14 13.27L361.14 13.27Q361.10 12.75 361.09 12.29L361.09 12.29L361.09 12.29Q361.07 11.82 361.07 11.34L361.07 11.34L361.07 11.34Q361.07 10.71 361.09 10.01L361.09 10.01L361.09 10.01Q361.10 9.31 361.12 8.52L361.12 8.52L361.12 8.52Q361.14 7.73 361.16 6.82L361.16 6.82L361.16 6.82Q361.17 5.92 361.17 4.86L361.17 4.86L361.17 4.86Q361.35 4.86 361.72 4.96L361.72 4.96L361.72 4.96Q362.08 5.07 362.44 5.21L362.44 5.21L362.44 5.21Q362.80 5.35 363.08 5.49L363.08 5.49L363.08 5.49Q363.36 5.64 363.38 5.74L363.38 5.74L363.38 5.74Q363.24 6.13 363.14 6.76L363.14 6.76L363.14 6.76Q363.03 7.39 362.97 8.16L362.97 8.16L362.97 8.16Q362.91 8.93 362.88 9.79L362.88 9.79L362.88 9.79Q362.85 10.64 362.85 11.48L362.85 11.48L362.85 11.48Q362.85 12.11 362.87 12.61L362.87 12.61L362.87 12.61Q362.88 13.10 362.90 13.50L362.90 13.50L362.90 13.50Q362.92 13.90 362.96 14.25L362.96 14.25L362.96 14.25Q363.01 14.59 363.06 14.92L363.06 14.92L363.06 14.92Q363.45 13.73 363.92 12.54L363.92 12.54L363.92 12.54Q364.39 11.35 364.89 10.25L364.89 10.25L364.89 10.25Q365.39 9.16 365.88 8.20L365.88 8.20L365.88 8.20Q366.37 7.25 366.81 6.54L366.81 6.54L366.81 6.54Q367.25 5.84 367.60 5.43L367.60 5.43L367.60 5.43Q367.95 5.01 368.17 4.98L368.17 4.98L368.17 4.98Q368.33 5.01 368.50 5.10L368.50 5.10L368.50 5.10Q368.68 5.19 368.83 5.32L368.83 5.32L368.83 5.32Q368.98 5.45 369.11 5.60L369.11 5.60L369.11 5.60Q369.24 5.75 369.31 5.91L369.31 5.91L369.31 5.91Q368.79 6.09 368.19 6.76L368.19 6.76L368.19 6.76Q367.60 7.43 367.00 8.38L367.00 8.38L367.00 8.38Q366.39 9.32 365.83 10.44L365.83 10.44L365.83 10.44Q365.26 11.55 364.81 12.61L364.81 12.61L364.81 12.61Q364.35 13.68 364.03 14.60L364.03 14.60L364.03 14.60Q363.71 15.53 363.59 16.07ZM380.56 9.21L380.56 9.21L380.56 9.21Q381.02 9.21 381.28 9.46L381.28 9.46L381.28 9.46Q381.54 9.72 381.54 10.16L381.54 10.16L381.54 10.16Q381.54 10.28 381.52 10.39L381.52 10.39L381.52 10.39Q381.50 10.51 381.47 10.60L381.47 10.60L381.47 10.60Q381.29 10.57 381.07 10.55L381.07 10.55L381.07 10.55Q380.84 10.53 380.53 10.53L380.53 10.53L380.53 10.53Q379.93 10.53 379.32 10.63L379.32 10.63L379.32 10.63Q378.70 10.74 378.14 10.81L378.14 10.81L378.14 10.81Q377.82 11.55 377.55 12.24L377.55 12.24L377.55 12.24Q377.29 12.94 377.10 13.51L377.10 13.51L377.10 13.51Q376.91 14.08 376.80 14.50L376.80 14.50L376.80 14.50Q376.70 14.92 376.68 15.13L376.68 15.13L376.68 15.13Q377.82 14.90 378.97 14.73L378.97 14.73L378.97 14.73Q380.13 14.56 381.40 14.48L381.40 14.48L381.40 14.48Q381.56 14.71 381.66 14.99L381.66 14.99L381.66 14.99Q381.77 15.27 381.77 15.60L381.77 15.60L381.77 15.60Q381.77 15.68 381.77 15.78L381.77 15.78L381.77 15.78Q381.77 15.88 381.74 15.97L381.74 15.97L381.74 15.97Q381.35 15.96 380.91 15.95L380.91 15.95L380.91 15.95Q380.48 15.95 379.78 15.95L379.78 15.95L379.78 15.95Q379.32 15.95 378.90 15.97L378.90 15.97L378.90 15.97Q378.49 15.99 378.07 16.03L378.07 16.03L378.07 16.03Q377.65 16.07 377.18 16.14L377.18 16.14L377.18 16.14Q376.71 16.21 376.12 16.31L376.12 16.31L376.12 16.31Q375.48 16.06 374.88 15.08L374.88 15.08L374.88 15.08Q375.12 14.57 375.54 13.54L375.54 13.54L375.54 13.54Q375.97 12.52 376.63 10.79L376.63 10.79L376.63 10.79Q376.00 10.60 375.80 10.09L375.80 10.09L375.80 10.09Q375.87 10.02 376.21 9.92L376.21 9.92L376.21 9.92Q376.54 9.81 377.03 9.70L377.03 9.70L377.03 9.70Q377.24 9.16 377.39 8.75L377.39 8.75L377.39 8.75Q377.54 8.34 377.65 7.99L377.65 7.99L377.65 7.99Q377.76 7.63 377.85 7.29L377.85 7.29L377.85 7.29Q377.94 6.94 378.03 6.54L378.03 6.54L378.03 6.54Q377.54 6.51 377.26 6.27L377.26 6.27L377.26 6.27Q376.98 6.02 376.98 5.63L376.98 5.63L376.98 5.63Q376.98 5.52 377.01 5.36L377.01 5.36L377.01 5.36Q377.05 5.21 377.09 5.10L377.09 5.10L377.09 5.10Q377.37 5.14 377.63 5.15L377.63 5.15L377.63 5.15Q377.89 5.17 378.31 5.17L378.31 5.17L378.31 5.17Q379.19 5.17 379.96 5.12L379.96 5.12L379.96 5.12Q380.73 5.07 381.35 5.01L381.35 5.01L381.35 5.01Q381.98 4.96 382.42 4.91L382.42 4.91L382.42 4.91Q382.87 4.86 383.11 4.86L383.11 4.86L383.11 4.86Q383.43 4.86 383.68 5.19L383.68 5.19L383.68 5.19Q383.94 5.53 384.06 6.15L384.06 6.15L384.06 6.15Q383.63 6.10 383.35 6.09L383.35 6.09L383.35 6.09Q383.08 6.08 382.87 6.08L382.87 6.08L382.87 6.08Q382.10 6.08 381.46 6.15L381.46 6.15L381.46 6.15Q380.83 6.23 380.24 6.31L380.24 6.31L380.24 6.31Q380.16 6.44 380.05 6.64L380.05 6.64L380.05 6.64Q379.95 6.83 379.78 7.18L379.78 7.18L379.78 7.18Q379.61 7.53 379.37 8.06L379.37 8.06L379.37 8.06Q379.12 8.60 378.77 9.39L378.77 9.39L378.77 9.39Q379.30 9.31 379.77 9.26L379.77 9.26L379.77 9.26Q380.24 9.21 380.56 9.21ZM401.21 12.43L401.21 12.43L401.21 12.43Q401.21 11.45 401.44 10.51L401.44 10.51L401.44 10.51Q401.67 9.56 402.09 8.71L402.09 8.71L402.09 8.71Q402.51 7.87 403.09 7.16L403.09 7.16L403.09 7.16Q403.68 6.45 404.37 5.94L404.37 5.94L404.37 5.94Q405.06 5.42 405.85 5.13L405.85 5.13L405.85 5.13Q406.63 4.84 407.46 4.84L407.46 4.84L407.46 4.84Q408.42 4.84 408.96 5.25L408.96 5.25L408.96 5.25Q409.50 5.66 409.50 6.38L409.50 6.38L409.50 6.38Q409.50 6.66 409.42 6.96L409.42 6.96L409.42 6.96Q409.35 7.25 409.20 7.54L409.20 7.54L409.20 7.54Q409.05 7.83 408.86 8.09L408.86 8.09L408.86 8.09Q408.66 8.36 408.42 8.55L408.42 8.55L408.42 8.55Q408.06 8.50 407.79 8.22L407.79 8.22L407.79 8.22Q407.53 7.95 407.46 7.59L407.46 7.59L407.46 7.59Q407.95 7.18 408.23 6.74L408.23 6.74L408.23 6.74Q408.52 6.30 408.52 5.94L408.52 5.94L408.52 5.94Q408.52 5.32 407.75 5.32L407.75 5.32L407.75 5.32Q407.43 5.32 407.08 5.45L407.08 5.45L407.08 5.45Q406.74 5.59 406.39 5.82L406.39 5.82L406.39 5.82Q406.04 6.06 405.71 6.40L405.71 6.40L405.71 6.40Q405.38 6.73 405.10 7.14L405.10 7.14L405.10 7.14Q403.16 9.94 403.16 12.87L403.16 12.87L403.16 12.87Q403.16 13.90 403.48 14.53L403.48 14.53L403.48 14.53Q403.80 15.16 404.33 15.27L404.33 15.27L404.33 15.27Q404.94 15.13 405.86 14.50L405.86 14.50L405.86 14.50Q406.78 13.87 407.88 12.87L407.88 12.87L407.88 12.87Q408.02 13.01 408.04 13.16L408.04 13.16L408.04 13.16Q407.64 13.69 407.20 14.18L407.20 14.18L407.20 14.18Q406.77 14.67 406.34 15.08L406.34 15.08L406.34 15.08Q405.92 15.48 405.50 15.79L405.50 15.79L405.50 15.79Q405.09 16.10 404.74 16.27L404.74 16.27L404.74 16.27Q403.00 16.24 402.11 15.27L402.11 15.27L402.11 15.27Q401.21 14.31 401.21 12.43ZM422.55 4.98L422.55 4.98L422.55 4.98Q422.81 5.10 423.09 5.27L423.09 5.27L423.09 5.27Q423.37 5.45 423.61 5.63L423.61 5.63L423.61 5.63Q423.85 5.81 424.01 5.98L424.01 5.98L424.01 5.98Q424.17 6.16 424.19 6.27L424.19 6.27L424.19 6.27Q423.95 6.22 423.71 6.20L423.71 6.20L423.71 6.20Q423.47 6.17 423.28 6.17L423.28 6.17L423.28 6.17Q422.65 6.17 422.02 6.48L422.02 6.48L422.02 6.48Q421.40 6.79 420.84 7.32L420.84 7.32L420.84 7.32Q420.28 7.85 419.80 8.57L419.80 8.57L419.80 8.57Q419.33 9.28 418.99 10.09L418.99 10.09L418.99 10.09Q418.64 10.91 418.45 11.77L418.45 11.77L418.45 11.77Q418.25 12.64 418.25 13.48L418.25 13.48L418.25 13.48Q418.25 14.57 418.61 15.11L418.61 15.11L418.61 15.11Q418.98 15.64 419.68 15.64L419.68 15.64L419.68 15.64Q420.01 15.64 420.41 15.51L420.41 15.51L420.41 15.51Q420.80 15.37 421.20 15.13L421.20 15.13L421.20 15.13Q421.61 14.90 422.00 14.56L422.00 14.56L422.00 14.56Q422.39 14.22 422.73 13.82L422.73 13.82L422.73 13.82Q423.22 13.23 423.61 12.48L423.61 12.48L423.61 12.48Q424.00 11.73 424.28 10.89L424.28 10.89L424.28 10.89Q424.55 10.05 424.70 9.16L424.70 9.16L424.70 9.16Q424.84 8.27 424.84 7.42L424.84 7.42L424.84 7.42Q424.84 7.08 424.83 6.85L424.83 6.85L424.83 6.85Q424.82 6.62 424.80 6.46L424.80 6.46L424.80 6.46Q424.77 6.30 424.76 6.20L424.76 6.20L424.76 6.20Q424.75 6.10 424.73 6.03L424.73 6.03L424.73 6.03Q424.90 6.12 425.10 6.24L425.10 6.24L425.10 6.24Q425.31 6.36 425.48 6.59L425.48 6.59L425.48 6.59Q425.66 6.82 425.78 7.20L425.78 7.20L425.78 7.20Q425.89 7.57 425.89 8.18L425.89 8.18L425.89 8.18Q425.89 9.16 425.66 10.10L425.66 10.10L425.66 10.10Q425.43 11.05 425.02 11.90L425.02 11.90L425.02 11.90Q424.61 12.75 424.05 13.50L424.05 13.50L424.05 13.50Q423.49 14.24 422.84 14.80L422.84 14.80L422.84 14.80Q422.00 15.54 421.05 15.95L421.05 15.95L421.05 15.95Q420.10 16.35 419.22 16.35L419.22 16.35L419.22 16.35Q417.93 16.35 417.25 15.53L417.25 15.53L417.25 15.53Q416.57 14.71 416.57 13.12L416.57 13.12L416.57 13.12Q416.57 12.26 416.76 11.31L416.76 11.31L416.76 11.31Q416.95 10.36 417.29 9.44L417.29 9.44L417.29 9.44Q417.63 8.51 418.11 7.68L418.11 7.68L418.11 7.68Q418.59 6.85 419.15 6.21L419.15 6.21L419.15 6.21Q419.72 5.57 420.37 5.19L420.37 5.19L420.37 5.19Q421.02 4.82 421.71 4.82L421.71 4.82L421.71 4.82Q421.93 4.82 422.13 4.85L422.13 4.85L422.13 4.85Q422.32 4.89 422.55 4.98ZM439.00 16.21L439.00 16.21L439.00 16.21Q438.97 16.23 438.94 16.23L438.94 16.23L438.94 16.23Q438.91 16.23 438.83 16.23L438.83 16.23L438.83 16.23Q438.63 16.23 438.38 16.16L438.38 16.16L438.38 16.16Q438.12 16.10 437.87 16.01L437.87 16.01L437.87 16.01Q437.63 15.92 437.45 15.81L437.45 15.81L437.45 15.81Q437.28 15.69 437.23 15.61L437.23 15.61L437.23 15.61Q437.22 15.41 437.22 15.20L437.22 15.20L437.22 15.20Q437.22 14.99 437.22 14.80L437.22 14.80L437.22 14.80Q437.22 13.23 437.45 11.52L437.45 11.52L437.45 11.52Q437.68 9.81 438.21 7.83L438.21 7.83L438.21 7.83Q438.27 7.63 438.33 7.33L438.33 7.33L438.33 7.33Q438.40 7.03 438.47 6.68L438.47 6.68L438.47 6.68Q438.13 6.94 437.67 7.53L437.67 7.53L437.67 7.53Q437.21 8.11 436.69 8.90L436.69 8.90L436.69 8.90Q436.18 9.69 435.67 10.63L435.67 10.63L435.67 10.63Q435.16 11.58 434.74 12.55L434.74 12.55L434.74 12.55Q434.32 13.52 434.02 14.48L434.02 14.48L434.02 14.48Q433.72 15.43 433.65 16.24L433.65 16.24L433.65 16.24Q432.98 16.04 432.72 15.85L432.72 15.85L432.72 15.85Q432.46 15.65 432.46 15.37L432.46 15.37L432.46 15.37Q432.46 15.12 432.61 14.66L432.61 14.66L432.61 14.66Q432.77 14.20 433.05 13.57L433.05 13.57L433.05 13.57Q433.33 12.94 433.73 12.16L433.73 12.16L433.73 12.16Q434.14 11.38 434.63 10.49L434.63 10.49L434.63 10.49Q435.19 9.46 435.73 8.57L435.73 8.57L435.73 8.57Q436.27 7.67 436.79 6.94L436.79 6.94L436.79 6.94Q437.30 6.22 437.80 5.68L437.80 5.68L437.80 5.68Q438.30 5.15 438.79 4.87L438.79 4.87L438.79 4.87Q438.98 4.87 439.31 4.97L439.31 4.97L439.31 4.97Q439.64 5.07 439.96 5.21L439.96 5.21L439.96 5.21Q440.27 5.35 440.52 5.49L440.52 5.49L440.52 5.49Q440.76 5.64 440.79 5.74L440.79 5.74L440.79 5.74Q440.59 6.13 440.33 6.92L440.33 6.92L440.33 6.92Q440.06 7.70 439.79 8.69L439.79 8.69L439.79 8.69Q439.52 9.69 439.27 10.80L439.27 10.80L439.27 10.80Q439.03 11.91 438.89 12.94L438.89 12.94L438.89 12.94Q439.21 12.17 439.64 11.33L439.64 11.33L439.64 11.33Q440.06 10.50 440.54 9.68L440.54 9.68L440.54 9.68Q441.01 8.86 441.51 8.09L441.51 8.09L441.51 8.09Q442.01 7.32 442.48 6.69L442.48 6.69L442.48 6.69Q442.96 6.05 443.37 5.57L443.37 5.57L443.37 5.57Q443.79 5.10 444.11 4.87L444.11 4.87L444.11 4.87Q444.30 4.87 444.63 4.97L444.63 4.97L444.63 4.97Q444.96 5.07 445.28 5.21L445.28 5.21L445.28 5.21Q445.59 5.35 445.84 5.49L445.84 5.49L445.84 5.49Q446.08 5.64 446.11 5.74L446.11 5.74L446.11 5.74Q445.66 6.54 445.33 7.69L445.33 7.69L445.33 7.69Q444.99 8.83 444.76 10.09L444.76 10.09L444.76 10.09Q444.53 11.35 444.41 12.59L444.41 12.59L444.41 12.59Q444.29 13.83 444.29 14.81L444.29 14.81L444.29 14.81Q444.29 15.13 444.29 15.48L444.29 15.48L444.29 15.48Q444.29 15.83 444.32 16.21L444.32 16.21L444.32 16.21Q444.12 16.21 443.85 16.16L443.85 16.16L443.85 16.16Q443.58 16.11 443.32 16.03L443.32 16.03L443.32 16.03Q443.06 15.95 442.85 15.84L442.85 15.84L442.85 15.84Q442.64 15.74 442.55 15.61L442.55 15.61L442.55 15.61Q442.54 15.41 442.54 15.20L442.54 15.20L442.54 15.20Q442.54 14.99 442.54 14.80L442.54 14.80L442.54 14.80Q442.54 13.23 442.77 11.52L442.77 11.52L442.77 11.52Q443.00 9.81 443.53 7.83L443.53 7.83L443.53 7.83Q443.59 7.63 443.66 7.29L443.66 7.29L443.66 7.29Q443.73 6.96 443.80 6.59L443.80 6.59L443.80 6.59Q443.41 6.79 442.91 7.34L442.91 7.34L442.91 7.34Q442.41 7.90 441.90 8.69L441.90 8.69L441.90 8.69Q441.39 9.48 440.90 10.44L440.90 10.44L440.90 10.44Q440.40 11.41 440.00 12.41L440.00 12.41L440.00 12.41Q439.60 13.41 439.33 14.40L439.33 14.40L439.33 14.40Q439.05 15.39 439.00 16.21ZM459.06 9.21L459.06 9.21L459.06 9.21Q459.52 9.21 459.78 9.46L459.78 9.46L459.78 9.46Q460.04 9.72 460.04 10.16L460.04 10.16L460.04 10.16Q460.04 10.28 460.02 10.39L460.02 10.39L460.02 10.39Q460.00 10.51 459.97 10.60L459.97 10.60L459.97 10.60Q459.79 10.57 459.56 10.55L459.56 10.55L459.56 10.55Q459.34 10.53 459.03 10.53L459.03 10.53L459.03 10.53Q458.43 10.53 457.81 10.63L457.81 10.63L457.81 10.63Q457.20 10.74 456.64 10.81L456.64 10.81L456.64 10.81Q456.32 11.55 456.05 12.24L456.05 12.24L456.05 12.24Q455.78 12.94 455.60 13.51L455.60 13.51L455.60 13.51Q455.41 14.08 455.30 14.50L455.30 14.50L455.30 14.50Q455.20 14.92 455.18 15.13L455.18 15.13L455.18 15.13Q456.32 14.90 457.47 14.73L457.47 14.73L457.47 14.73Q458.63 14.56 459.90 14.48L459.90 14.48L459.90 14.48Q460.05 14.71 460.16 14.99L460.16 14.99L460.16 14.99Q460.26 15.27 460.26 15.60L460.26 15.60L460.26 15.60Q460.26 15.68 460.26 15.78L460.26 15.78L460.26 15.78Q460.26 15.88 460.24 15.97L460.24 15.97L460.24 15.97Q459.84 15.96 459.41 15.95L459.41 15.95L459.41 15.95Q458.98 15.95 458.28 15.95L458.28 15.95L458.28 15.95Q457.81 15.95 457.40 15.97L457.40 15.97L457.40 15.97Q456.99 15.99 456.57 16.03L456.57 16.03L456.57 16.03Q456.15 16.07 455.68 16.14L455.68 16.14L455.68 16.14Q455.21 16.21 454.62 16.31L454.62 16.31L454.62 16.31Q453.98 16.06 453.38 15.08L453.38 15.08L453.38 15.08Q453.61 14.57 454.04 13.54L454.04 13.54L454.04 13.54Q454.47 12.52 455.13 10.79L455.13 10.79L455.13 10.79Q454.50 10.60 454.30 10.09L454.30 10.09L454.30 10.09Q454.37 10.02 454.71 9.92L454.71 9.92L454.71 9.92Q455.04 9.81 455.53 9.70L455.53 9.70L455.53 9.70Q455.74 9.16 455.89 8.75L455.89 8.75L455.89 8.75Q456.04 8.34 456.15 7.99L456.15 7.99L456.15 7.99Q456.26 7.63 456.35 7.29L456.35 7.29L456.35 7.29Q456.44 6.94 456.53 6.54L456.53 6.54L456.53 6.54Q456.04 6.51 455.76 6.27L455.76 6.27L455.76 6.27Q455.48 6.02 455.48 5.63L455.48 5.63L455.48 5.63Q455.48 5.52 455.51 5.36L455.51 5.36L455.51 5.36Q455.55 5.21 455.59 5.10L455.59 5.10L455.59 5.10Q455.87 5.14 456.13 5.15L456.13 5.15L456.13 5.15Q456.39 5.17 456.81 5.17L456.81 5.17L456.81 5.17Q457.69 5.17 458.46 5.12L458.46 5.12L458.46 5.12Q459.23 5.07 459.85 5.01L459.85 5.01L459.85 5.01Q460.47 4.96 460.92 4.91L460.92 4.91L460.92 4.91Q461.37 4.86 461.61 4.86L461.61 4.86L461.61 4.86Q461.93 4.86 462.18 5.19L462.18 5.19L462.18 5.19Q462.43 5.53 462.56 6.15L462.56 6.15L462.56 6.15Q462.13 6.10 461.85 6.09L461.85 6.09L461.85 6.09Q461.58 6.08 461.37 6.08L461.37 6.08L461.37 6.08Q460.60 6.08 459.96 6.15L459.96 6.15L459.96 6.15Q459.33 6.23 458.74 6.31L458.74 6.31L458.74 6.31Q458.65 6.44 458.55 6.64L458.55 6.64L458.55 6.64Q458.44 6.83 458.28 7.18L458.28 7.18L458.28 7.18Q458.11 7.53 457.86 8.06L457.86 8.06L457.86 8.06Q457.62 8.60 457.27 9.39L457.27 9.39L457.27 9.39Q457.80 9.31 458.27 9.26L458.27 9.26L458.27 9.26Q458.74 9.21 459.06 9.21ZM477.93 5.74L477.93 5.74L477.93 5.74Q477.97 5.98 478.00 6.07L478.00 6.07L478.00 6.07Q478.02 6.16 478.02 6.31L478.02 6.31L478.02 6.31Q478.02 6.78 477.81 7.18L477.81 7.18L477.81 7.18Q477.61 7.57 477.26 7.74L477.26 7.74L477.26 7.74Q476.98 7.36 476.57 7.09L476.57 7.09L476.57 7.09Q476.17 6.82 475.69 6.64L475.69 6.64L475.69 6.64Q475.20 6.47 474.68 6.38L474.68 6.38L474.68 6.38Q474.17 6.30 473.68 6.30L473.68 6.30L473.68 6.30Q473.19 6.30 472.76 6.38L472.76 6.38L472.76 6.38Q472.33 6.45 472.00 6.59L472.00 6.59L472.00 6.59Q471.67 6.72 471.49 6.92L471.49 6.92L471.49 6.92Q471.30 7.11 471.30 7.36L471.30 7.36L471.30 7.36Q471.34 7.67 471.67 7.99L471.67 7.99L471.67 7.99Q472.01 8.30 472.50 8.60L472.50 8.60L472.50 8.60Q472.99 8.90 473.59 9.20L473.59 9.20L473.59 9.20Q474.18 9.49 474.75 9.76L474.75 9.76L474.75 9.76Q475.47 10.09 475.99 10.38L475.99 10.38L475.99 10.38Q476.50 10.67 476.84 11.01L476.84 11.01L476.84 11.01Q477.18 11.35 477.34 11.79L477.34 11.79L477.34 11.79Q477.51 12.22 477.51 12.84L477.51 12.84L477.51 12.84Q477.51 13.55 477.27 14.18L477.27 14.18L477.27 14.18Q477.04 14.80 476.58 15.26L476.58 15.26L476.58 15.26Q476.13 15.72 475.48 15.98L475.48 15.98L475.48 15.98Q474.84 16.24 474.04 16.24L474.04 16.24L474.04 16.24Q473.26 16.24 472.35 16.00L472.35 16.00L472.35 16.00Q471.44 15.76 470.65 15.35L470.65 15.35L470.65 15.35Q469.85 14.94 469.33 14.40L469.33 14.40L469.33 14.40Q468.80 13.86 468.80 13.26L468.80 13.26L468.80 13.26Q468.80 12.98 468.97 12.54L468.97 12.54L468.97 12.54Q469.13 12.11 469.55 11.63L469.55 11.63L469.55 11.63Q469.59 12.05 470.00 12.63L470.00 12.63L470.00 12.63Q470.41 13.20 471.24 13.69L471.24 13.69L471.24 13.69Q472.01 14.14 472.83 14.34L472.83 14.34L472.83 14.34Q473.65 14.55 474.36 14.55L474.36 14.55L474.36 14.55Q475.15 14.55 475.64 14.35L475.64 14.35L475.64 14.35Q476.13 14.15 476.41 13.88L476.41 13.88L476.41 13.88Q476.69 13.61 476.80 13.33L476.80 13.33L476.80 13.33Q476.91 13.05 476.92 12.88L476.92 12.88L476.92 12.88Q476.91 12.60 476.67 12.34L476.67 12.34L476.67 12.34Q476.42 12.08 476.01 11.84L476.01 11.84L476.01 11.84Q475.59 11.59 475.05 11.34L475.05 11.34L475.05 11.34Q474.50 11.09 473.91 10.84L473.91 10.84L473.91 10.84Q473.03 10.44 472.40 10.10L472.40 10.10L472.40 10.10Q471.76 9.76 471.35 9.40L471.35 9.40L471.35 9.40Q470.93 9.04 470.74 8.65L470.74 8.65L470.74 8.65Q470.55 8.26 470.55 7.76L470.55 7.76L470.55 7.76Q470.55 6.97 471.03 6.27L471.03 6.27L471.03 6.27Q471.51 5.57 472.40 5.21L472.40 5.21L472.40 5.21Q472.85 5.01 473.36 4.93L473.36 4.93L473.36 4.93Q473.87 4.84 474.36 4.84L474.36 4.84L474.36 4.84Q475.29 4.84 476.17 5.10L476.17 5.10L476.17 5.10Q477.05 5.35 477.93 5.74ZM498.74 6.69L498.74 6.69L498.74 6.69Q498.18 6.69 497.88 6.38L497.88 6.38L497.88 6.38Q497.57 6.06 497.57 5.61L497.57 5.61L497.57 5.61Q497.57 5.50 497.61 5.35L497.61 5.35L497.61 5.35Q497.64 5.19 497.70 5.08L497.70 5.08L497.70 5.08Q497.88 5.17 498.24 5.20L498.24 5.20L498.24 5.20Q498.60 5.24 499.07 5.24L499.07 5.24L499.07 5.24Q499.79 5.24 500.69 5.17L500.69 5.17L500.69 5.17Q501.59 5.11 502.42 5.04L502.42 5.04L502.42 5.04Q503.24 4.97 503.87 4.91L503.87 4.91L503.87 4.91Q504.50 4.84 504.69 4.84L504.69 4.84L504.69 4.84Q505.20 4.84 505.44 5.23L505.44 5.23L505.44 5.23Q505.67 5.61 505.78 6.26L505.78 6.26L505.78 6.26Q505.41 6.23 505.06 6.21L505.06 6.21L505.06 6.21Q504.70 6.19 504.45 6.19L504.45 6.19L504.45 6.19Q504 6.19 503.55 6.22L503.55 6.22L503.55 6.22Q503.09 6.24 502.63 6.30L502.63 6.30L502.63 6.30Q502.43 6.71 502.19 7.26L502.19 7.26L502.19 7.26Q501.96 7.81 501.73 8.41L501.73 8.41L501.73 8.41Q501.49 9.02 501.28 9.61L501.28 9.61L501.28 9.61Q501.07 10.21 500.92 10.68L500.92 10.68L500.92 10.68Q500.61 11.61 500.38 12.39L500.38 12.39L500.38 12.39Q500.15 13.17 499.98 13.85L499.98 13.85L499.98 13.85Q499.80 14.53 499.67 15.15L499.67 15.15L499.67 15.15Q499.55 15.76 499.45 16.35L499.45 16.35L499.45 16.35Q498.51 16.21 497.88 15.18L497.88 15.18L497.88 15.18Q497.99 14.74 498.16 14.23L498.16 14.23L498.16 14.23Q498.32 13.72 498.53 13.07L498.53 13.07L498.53 13.07Q498.75 12.42 499.04 11.59L499.04 11.59L499.04 11.59Q499.34 10.77 499.72 9.72L499.72 9.72L499.72 9.72Q499.86 9.32 500.01 8.90L500.01 8.90L500.01 8.90Q500.16 8.47 500.31 8.05L500.31 8.05L500.31 8.05Q500.46 7.63 500.58 7.24L500.58 7.24L500.58 7.24Q500.70 6.85 500.78 6.52L500.78 6.52L500.78 6.52Q500.19 6.59 499.67 6.64L499.67 6.64L499.67 6.64Q499.14 6.69 498.74 6.69ZM517.65 4.98L517.65 4.98L517.65 4.98Q517.92 5.10 518.20 5.27L518.20 5.27L518.20 5.27Q518.48 5.45 518.71 5.63L518.71 5.63L518.71 5.63Q518.95 5.81 519.11 5.98L519.11 5.98L519.11 5.98Q519.27 6.16 519.29 6.27L519.29 6.27L519.29 6.27Q519.05 6.22 518.81 6.20L518.81 6.20L518.81 6.20Q518.57 6.17 518.38 6.17L518.38 6.17L518.38 6.17Q517.75 6.17 517.13 6.48L517.13 6.48L517.13 6.48Q516.50 6.79 515.94 7.32L515.94 7.32L515.94 7.32Q515.38 7.85 514.91 8.57L514.91 8.57L514.91 8.57Q514.43 9.28 514.09 10.09L514.09 10.09L514.09 10.09Q513.74 10.91 513.55 11.77L513.55 11.77L513.55 11.77Q513.35 12.64 513.35 13.48L513.35 13.48L513.35 13.48Q513.35 14.57 513.72 15.11L513.72 15.11L513.72 15.11Q514.08 15.64 514.78 15.64L514.78 15.64L514.78 15.64Q515.12 15.64 515.51 15.51L515.51 15.51L515.51 15.51Q515.90 15.37 516.31 15.13L516.31 15.13L516.31 15.13Q516.71 14.90 517.10 14.56L517.10 14.56L517.10 14.56Q517.50 14.22 517.83 13.82L517.83 13.82L517.83 13.82Q518.32 13.23 518.71 12.48L518.71 12.48L518.71 12.48Q519.11 11.73 519.38 10.89L519.38 10.89L519.38 10.89Q519.65 10.05 519.80 9.16L519.80 9.16L519.80 9.16Q519.95 8.27 519.95 7.42L519.95 7.42L519.95 7.42Q519.95 7.08 519.93 6.85L519.93 6.85L519.93 6.85Q519.92 6.62 519.90 6.46L519.90 6.46L519.90 6.46Q519.88 6.30 519.86 6.20L519.86 6.20L519.86 6.20Q519.85 6.10 519.83 6.03L519.83 6.03L519.83 6.03Q520.00 6.12 520.21 6.24L520.21 6.24L520.21 6.24Q520.41 6.36 520.58 6.59L520.58 6.59L520.58 6.59Q520.76 6.82 520.88 7.20L520.88 7.20L520.88 7.20Q521.00 7.57 521.00 8.18L521.00 8.18L521.00 8.18Q521.00 9.16 520.76 10.10L520.76 10.10L520.76 10.10Q520.53 11.05 520.12 11.90L520.12 11.90L520.12 11.90Q519.71 12.75 519.15 13.50L519.15 13.50L519.15 13.50Q518.59 14.24 517.94 14.80L517.94 14.80L517.94 14.80Q517.10 15.54 516.15 15.95L516.15 15.95L516.15 15.95Q515.20 16.35 514.32 16.35L514.32 16.35L514.32 16.35Q513.03 16.35 512.35 15.53L512.35 15.53L512.35 15.53Q511.67 14.71 511.67 13.12L511.67 13.12L511.67 13.12Q511.67 12.26 511.86 11.31L511.86 11.31L511.86 11.31Q512.05 10.36 512.39 9.44L512.39 9.44L512.39 9.44Q512.74 8.51 513.21 7.68L513.21 7.68L513.21 7.68Q513.69 6.85 514.25 6.21L514.25 6.21L514.25 6.21Q514.82 5.57 515.47 5.19L515.47 5.19L515.47 5.19Q516.12 4.82 516.81 4.82L516.81 4.82L516.81 4.82Q517.03 4.82 517.23 4.85L517.23 4.85L517.23 4.85Q517.43 4.89 517.65 4.98ZM536.07 10.72L536.07 10.72L536.07 10.72Q536.44 10.72 536.65 10.98L536.65 10.98L536.65 10.98Q536.86 11.23 536.86 11.68L536.86 11.68L536.86 11.68Q536.86 11.79 536.84 11.91L536.84 11.91L536.84 11.91Q536.83 12.03 536.80 12.11L536.80 12.11L536.80 12.11Q536.51 12.04 536.16 12.03L536.16 12.03L536.16 12.03Q536.07 12.64 535.71 13.32L535.71 13.32L535.71 13.32Q535.35 14 534.83 14.60L534.83 14.60L534.83 14.60Q534.31 15.19 533.69 15.64L533.69 15.64L533.69 15.64Q533.08 16.09 532.48 16.24L532.48 16.24L532.48 16.24Q530.60 16.20 529.74 15.27L529.74 15.27L529.74 15.27Q528.88 14.34 528.88 12.36L528.88 12.36L528.88 12.36Q528.88 10.92 529.41 9.57L529.41 9.57L529.41 9.57Q529.94 8.22 530.82 7.17L530.82 7.17L530.82 7.17Q531.71 6.12 532.85 5.48L532.85 5.48L532.85 5.48Q533.99 4.84 535.22 4.84L535.22 4.84L535.22 4.84Q536.19 4.84 536.73 5.25L536.73 5.25L536.73 5.25Q537.26 5.66 537.26 6.40L537.26 6.40L537.26 6.40Q537.26 6.89 537.03 7.31L537.03 7.31L537.03 7.31Q536.80 7.73 536.27 8.22L536.27 8.22L536.27 8.22Q535.95 8.12 535.71 7.88L535.71 7.88L535.71 7.88Q535.47 7.63 535.42 7.31L535.42 7.31L535.42 7.31Q535.89 6.96 536.09 6.66L536.09 6.66L536.09 6.66Q536.28 6.37 536.28 5.96L536.28 5.96L536.28 5.96Q536.28 5.32 535.51 5.32L535.51 5.32L535.51 5.32Q534.88 5.32 534.16 5.79L534.16 5.79L534.16 5.79Q533.44 6.26 532.71 7.14L532.71 7.14L532.71 7.14Q531.68 8.39 531.20 9.71L531.20 9.71L531.20 9.71Q530.73 11.03 530.73 12.68L530.73 12.68L530.73 12.68Q530.73 13.30 530.85 13.80L530.85 13.80L530.85 13.80Q530.98 14.31 531.19 14.69L531.19 14.69L531.19 14.69Q531.40 15.06 531.68 15.29L531.68 15.29L531.68 15.29Q531.97 15.51 532.31 15.54L532.31 15.54L532.31 15.54Q532.76 15.44 533.20 15.09L533.20 15.09L533.20 15.09Q533.65 14.73 534.02 14.25L534.02 14.25L534.02 14.25Q534.39 13.76 534.65 13.21L534.65 13.21L534.65 13.21Q534.91 12.66 534.97 12.15L534.97 12.15L534.97 12.15Q534.58 12.24 534.22 12.31L534.22 12.31L534.22 12.31Q533.86 12.39 533.54 12.39L533.54 12.39L533.54 12.39Q533.12 12.39 532.80 12.18L532.80 12.18L532.80 12.18Q532.49 11.97 532.38 11.61L532.38 11.61L532.38 11.61Q532.63 11.47 533.11 11.31L533.11 11.31L533.11 11.31Q533.60 11.16 534.14 11.03L534.14 11.03L534.14 11.03Q534.69 10.89 535.21 10.81L535.21 10.81L535.21 10.81Q535.74 10.72 536.07 10.72ZM550.20 9.21L550.20 9.21L550.20 9.21Q550.66 9.21 550.92 9.46L550.92 9.46L550.92 9.46Q551.18 9.72 551.18 10.16L551.18 10.16L551.18 10.16Q551.18 10.28 551.16 10.39L551.16 10.39L551.16 10.39Q551.14 10.51 551.11 10.60L551.11 10.60L551.11 10.60Q550.93 10.57 550.70 10.55L550.70 10.55L550.70 10.55Q550.48 10.53 550.17 10.53L550.17 10.53L550.17 10.53Q549.57 10.53 548.95 10.63L548.95 10.63L548.95 10.63Q548.34 10.74 547.78 10.81L547.78 10.81L547.78 10.81Q547.46 11.55 547.19 12.24L547.19 12.24L547.19 12.24Q546.92 12.94 546.74 13.51L546.74 13.51L546.74 13.51Q546.55 14.08 546.44 14.50L546.44 14.50L546.44 14.50Q546.34 14.92 546.32 15.13L546.32 15.13L546.32 15.13Q547.46 14.90 548.61 14.73L548.61 14.73L548.61 14.73Q549.77 14.56 551.04 14.48L551.04 14.48L551.04 14.48Q551.19 14.71 551.30 14.99L551.30 14.99L551.30 14.99Q551.40 15.27 551.40 15.60L551.40 15.60L551.40 15.60Q551.40 15.68 551.40 15.78L551.40 15.78L551.40 15.78Q551.40 15.88 551.38 15.97L551.38 15.97L551.38 15.97Q550.98 15.96 550.55 15.95L550.55 15.95L550.55 15.95Q550.12 15.95 549.42 15.95L549.42 15.95L549.42 15.95Q548.95 15.95 548.54 15.97L548.54 15.97L548.54 15.97Q548.13 15.99 547.71 16.03L547.71 16.03L547.71 16.03Q547.29 16.07 546.82 16.14L546.82 16.14L546.82 16.14Q546.35 16.21 545.76 16.31L545.76 16.31L545.76 16.31Q545.12 16.06 544.52 15.08L544.52 15.08L544.52 15.08Q544.75 14.57 545.18 13.54L545.18 13.54L545.18 13.54Q545.61 12.52 546.27 10.79L546.27 10.79L546.27 10.79Q545.64 10.60 545.44 10.09L545.44 10.09L545.44 10.09Q545.51 10.02 545.85 9.92L545.85 9.92L545.85 9.92Q546.18 9.81 546.67 9.70L546.67 9.70L546.67 9.70Q546.88 9.16 547.03 8.75L547.03 8.75L547.03 8.75Q547.18 8.34 547.29 7.99L547.29 7.99L547.29 7.99Q547.40 7.63 547.49 7.29L547.49 7.29L547.49 7.29Q547.58 6.94 547.67 6.54L547.67 6.54L547.67 6.54Q547.18 6.51 546.90 6.27L546.90 6.27L546.90 6.27Q546.62 6.02 546.62 5.63L546.62 5.63L546.62 5.63Q546.62 5.52 546.65 5.36L546.65 5.36L546.65 5.36Q546.69 5.21 546.73 5.10L546.73 5.10L546.73 5.10Q547.01 5.14 547.27 5.15L547.27 5.15L547.27 5.15Q547.53 5.17 547.95 5.17L547.95 5.17L547.95 5.17Q548.83 5.17 549.60 5.12L549.60 5.12L549.60 5.12Q550.37 5.07 550.99 5.01L550.99 5.01L550.99 5.01Q551.61 4.96 552.06 4.91L552.06 4.91L552.06 4.91Q552.51 4.86 552.75 4.86L552.75 4.86L552.75 4.86Q553.07 4.86 553.32 5.19L553.32 5.19L553.32 5.19Q553.57 5.53 553.70 6.15L553.70 6.15L553.70 6.15Q553.27 6.10 552.99 6.09L552.99 6.09L552.99 6.09Q552.72 6.08 552.51 6.08L552.51 6.08L552.51 6.08Q551.74 6.08 551.10 6.15L551.10 6.15L551.10 6.15Q550.47 6.23 549.88 6.31L549.88 6.31L549.88 6.31Q549.79 6.44 549.69 6.64L549.69 6.64L549.69 6.64Q549.58 6.83 549.42 7.18L549.42 7.18L549.42 7.18Q549.25 7.53 549.00 8.06L549.00 8.06L549.00 8.06Q548.76 8.60 548.41 9.39L548.41 9.39L548.41 9.39Q548.94 9.31 549.41 9.26L549.41 9.26L549.41 9.26Q549.88 9.21 550.20 9.21ZM562.72 6.69L562.72 6.69L562.72 6.69Q562.16 6.69 561.86 6.38L561.86 6.38L561.86 6.38Q561.55 6.06 561.55 5.61L561.55 5.61L561.55 5.61Q561.55 5.50 561.59 5.35L561.59 5.35L561.59 5.35Q561.62 5.19 561.68 5.08L561.68 5.08L561.68 5.08Q561.86 5.17 562.22 5.20L562.22 5.20L562.22 5.20Q562.58 5.24 563.05 5.24L563.05 5.24L563.05 5.24Q563.77 5.24 564.67 5.17L564.67 5.17L564.67 5.17Q565.57 5.11 566.40 5.04L566.40 5.04L566.40 5.04Q567.22 4.97 567.85 4.91L567.85 4.91L567.85 4.91Q568.48 4.84 568.67 4.84L568.67 4.84L568.67 4.84Q569.18 4.84 569.41 5.23L569.41 5.23L569.41 5.23Q569.65 5.61 569.76 6.26L569.76 6.26L569.76 6.26Q569.39 6.23 569.04 6.21L569.04 6.21L569.04 6.21Q568.68 6.19 568.43 6.19L568.43 6.19L568.43 6.19Q567.98 6.19 567.52 6.22L567.52 6.22L567.52 6.22Q567.07 6.24 566.61 6.30L566.61 6.30L566.61 6.30Q566.41 6.71 566.17 7.26L566.17 7.26L566.17 7.26Q565.94 7.81 565.70 8.41L565.70 8.41L565.70 8.41Q565.47 9.02 565.26 9.61L565.26 9.61L565.26 9.61Q565.05 10.21 564.90 10.68L564.90 10.68L564.90 10.68Q564.59 11.61 564.36 12.39L564.36 12.39L564.36 12.39Q564.13 13.17 563.95 13.85L563.95 13.85L563.95 13.85Q563.78 14.53 563.65 15.15L563.65 15.15L563.65 15.15Q563.53 15.76 563.43 16.35L563.43 16.35L563.43 16.35Q562.49 16.21 561.86 15.18L561.86 15.18L561.86 15.18Q561.97 14.74 562.13 14.23L562.13 14.23L562.13 14.23Q562.30 13.72 562.51 13.07L562.51 13.07L562.51 13.07Q562.73 12.42 563.02 11.59L563.02 11.59L563.02 11.59Q563.32 10.77 563.70 9.72L563.70 9.72L563.70 9.72Q563.84 9.32 563.99 8.90L563.99 8.90L563.99 8.90Q564.14 8.47 564.29 8.05L564.29 8.05L564.29 8.05Q564.44 7.63 564.56 7.24L564.56 7.24L564.56 7.24Q564.68 6.85 564.76 6.52L564.76 6.52L564.76 6.52Q564.17 6.59 563.65 6.64L563.65 6.64L563.65 6.64Q563.12 6.69 562.72 6.69ZM580.64 14.36L580.64 14.36L580.64 14.36Q580.64 13.78 580.83 12.85L580.83 12.85L580.83 12.85Q581.03 11.93 581.35 10.88L581.35 10.88L581.35 10.88Q580.43 10.95 579.49 11.06L579.49 11.06L579.49 11.06Q578.56 11.17 577.88 11.19L577.88 11.19L577.88 11.19Q577.25 12.66 576.88 13.89L576.88 13.89L576.88 13.89Q576.51 15.13 576.30 16.31L576.30 16.31L576.30 16.31Q575.76 16.18 575.41 15.87L575.41 15.87L575.41 15.87Q575.06 15.55 574.77 15.08L574.77 15.08L574.77 15.08Q574.88 14.85 575.03 14.50L575.03 14.50L575.03 14.50Q575.18 14.15 575.38 13.66L575.38 13.66L575.38 13.66Q575.58 13.16 575.84 12.50L575.84 12.50L575.84 12.50Q576.10 11.83 576.44 10.95L576.44 10.95L576.44 10.95Q575.97 10.75 575.82 10.40L575.82 10.40L575.82 10.40Q575.89 10.35 576.13 10.28L576.13 10.28L576.13 10.28Q576.38 10.22 576.74 10.15L576.74 10.15L576.93 9.70L576.93 9.70Q577.22 8.95 577.41 8.43L577.41 8.43L577.41 8.43Q577.60 7.91 577.73 7.41L577.73 7.41L577.73 7.41Q577.86 6.92 577.98 6.31L577.98 6.31L577.98 6.31Q578.10 5.71 578.27 4.79L578.27 4.79L578.27 4.79Q578.86 4.90 579.34 5.31L579.34 5.31L579.34 5.31Q579.82 5.71 580.17 6.29L580.17 6.29L580.17 6.29Q580.05 6.45 579.87 6.79L579.87 6.79L579.87 6.79Q579.68 7.13 579.47 7.59L579.47 7.59L579.47 7.59Q579.25 8.06 579.00 8.64L579.00 8.64L579.00 8.64Q578.75 9.23 578.45 9.87L578.45 9.87L578.45 9.87Q579.32 9.76 580.21 9.66L580.21 9.66L580.21 9.66Q581.10 9.56 581.78 9.52L581.78 9.52L581.78 9.52Q582.04 8.79 582.31 8.10L582.31 8.10L582.31 8.10Q582.58 7.41 582.85 6.83L582.85 6.83L582.85 6.83Q583.11 6.26 583.36 5.82L583.36 5.82L583.36 5.82Q583.60 5.39 583.80 5.18L583.80 5.18L583.80 5.18Q583.94 5.19 584.17 5.29L584.17 5.29L584.17 5.29Q584.40 5.38 584.64 5.50L584.64 5.50L584.64 5.50Q584.88 5.63 585.07 5.78L585.07 5.78L585.07 5.78Q585.27 5.92 585.34 6.05L585.34 6.05L585.34 6.05Q585.09 6.29 584.84 6.66L584.84 6.66L584.84 6.66Q584.58 7.04 584.34 7.53L584.34 7.53L584.34 7.53Q584.09 8.02 583.86 8.60L583.86 8.60L583.86 8.60Q583.62 9.17 583.41 9.79L583.41 9.79L583.41 9.79Q583.69 10.04 583.69 10.42L583.69 10.42L583.69 10.42Q583.69 10.68 583.58 10.91L583.58 10.91L583.58 10.91Q583.45 10.88 583.32 10.87L583.32 10.87L583.32 10.87Q583.20 10.86 583.06 10.85L583.06 10.85L583.06 10.85Q582.82 11.61 582.62 12.35L582.62 12.35L582.62 12.35Q582.43 13.09 582.29 13.76L582.29 13.76L582.29 13.76Q582.16 14.43 582.08 14.99L582.08 14.99L582.08 14.99Q582.01 15.55 582.01 15.93L582.01 15.93L582.01 15.93Q582.01 16.07 582.01 16.16L582.01 16.16L582.01 16.16Q582.02 16.24 582.04 16.30L582.04 16.30L582.04 16.30Q581.73 16.28 581.59 16.19L581.59 16.19L581.59 16.19Q581.45 16.10 581.38 16.00L581.38 16.00L581.38 16.00Q581.31 15.89 581.25 15.79L581.25 15.79L581.25 15.79Q581.20 15.68 581.07 15.62L581.07 15.62L581.07 15.62Q580.97 15.58 580.89 15.43L580.89 15.43L580.89 15.43Q580.80 15.27 580.75 15.08L580.75 15.08L580.75 15.08Q580.69 14.88 580.66 14.69L580.66 14.69L580.66 14.69Q580.64 14.49 580.64 14.36ZM597.41 9.21L597.41 9.21L597.41 9.21Q597.87 9.21 598.13 9.46L598.13 9.46L598.13 9.46Q598.39 9.72 598.39 10.16L598.39 10.16L598.39 10.16Q598.39 10.28 598.37 10.39L598.37 10.39L598.37 10.39Q598.35 10.51 598.32 10.60L598.32 10.60L598.32 10.60Q598.14 10.57 597.91 10.55L597.91 10.55L597.91 10.55Q597.69 10.53 597.38 10.53L597.38 10.53L597.38 10.53Q596.78 10.53 596.16 10.63L596.16 10.63L596.16 10.63Q595.55 10.74 594.99 10.81L594.99 10.81L594.99 10.81Q594.66 11.55 594.40 12.24L594.40 12.24L594.40 12.24Q594.13 12.94 593.94 13.51L593.94 13.51L593.94 13.51Q593.75 14.08 593.65 14.50L593.65 14.50L593.65 14.50Q593.54 14.92 593.53 15.13L593.53 15.13L593.53 15.13Q594.66 14.90 595.82 14.73L595.82 14.73L595.82 14.73Q596.97 14.56 598.25 14.48L598.25 14.48L598.25 14.48Q598.40 14.71 598.51 14.99L598.51 14.99L598.51 14.99Q598.61 15.27 598.61 15.60L598.61 15.60L598.61 15.60Q598.61 15.68 598.61 15.78L598.61 15.78L598.61 15.78Q598.61 15.88 598.58 15.97L598.58 15.97L598.58 15.97Q598.19 15.96 597.76 15.95L597.76 15.95L597.76 15.95Q597.32 15.95 596.62 15.95L596.62 15.95L596.62 15.95Q596.16 15.95 595.75 15.97L595.75 15.97L595.75 15.97Q595.34 15.99 594.92 16.03L594.92 16.03L594.92 16.03Q594.50 16.07 594.03 16.14L594.03 16.14L594.03 16.14Q593.56 16.21 592.97 16.31L592.97 16.31L592.97 16.31Q592.33 16.06 591.72 15.08L591.72 15.08L591.72 15.08Q591.96 14.57 592.39 13.54L592.39 13.54L592.39 13.54Q592.82 12.52 593.47 10.79L593.47 10.79L593.47 10.79Q592.84 10.60 592.65 10.09L592.65 10.09L592.65 10.09Q592.72 10.02 593.05 9.92L593.05 9.92L593.05 9.92Q593.39 9.81 593.88 9.70L593.88 9.70L593.88 9.70Q594.09 9.16 594.24 8.75L594.24 8.75L594.24 8.75Q594.38 8.34 594.50 7.99L594.50 7.99L594.50 7.99Q594.61 7.63 594.70 7.29L594.70 7.29L594.70 7.29Q594.79 6.94 594.87 6.54L594.87 6.54L594.87 6.54Q594.38 6.51 594.10 6.27L594.10 6.27L594.10 6.27Q593.82 6.02 593.82 5.63L593.82 5.63L593.82 5.63Q593.82 5.52 593.86 5.36L593.86 5.36L593.86 5.36Q593.89 5.21 593.94 5.10L593.94 5.10L593.94 5.10Q594.22 5.14 594.48 5.15L594.48 5.15L594.48 5.15Q594.73 5.17 595.15 5.17L595.15 5.17L595.15 5.17Q596.04 5.17 596.81 5.12L596.81 5.12L596.81 5.12Q597.58 5.07 598.20 5.01L598.20 5.01L598.20 5.01Q598.82 4.96 599.27 4.91L599.27 4.91L599.27 4.91Q599.72 4.86 599.96 4.86L599.96 4.86L599.96 4.86Q600.28 4.86 600.53 5.19L600.53 5.19L600.53 5.19Q600.78 5.53 600.91 6.15L600.91 6.15L600.91 6.15Q600.47 6.10 600.20 6.09L600.20 6.09L600.20 6.09Q599.93 6.08 599.72 6.08L599.72 6.08L599.72 6.08Q598.95 6.08 598.31 6.15L598.31 6.15L598.31 6.15Q597.67 6.23 597.09 6.31L597.09 6.31L597.09 6.31Q597.00 6.44 596.90 6.64L596.90 6.64L596.90 6.64Q596.79 6.83 596.62 7.18L596.62 7.18L596.62 7.18Q596.46 7.53 596.21 8.06L596.21 8.06L596.21 8.06Q595.97 8.60 595.62 9.39L595.62 9.39L595.62 9.39Q596.15 9.31 596.62 9.26L596.62 9.26L596.62 9.26Q597.09 9.21 597.41 9.21ZM616.67 7.46L616.67 7.46L616.67 7.46Q616.67 8.13 616.37 8.73L616.37 8.73L616.37 8.73Q616.07 9.32 615.54 9.79L615.54 9.79L615.54 9.79Q615.01 10.26 614.29 10.58L614.29 10.58L614.29 10.58Q613.58 10.91 612.74 11.02L612.74 11.02L612.74 11.02Q612.95 11.65 613.25 12.31L613.25 12.31L613.25 12.31Q613.55 12.98 613.90 13.59L613.90 13.59L613.90 13.59Q614.25 14.21 614.63 14.73L614.63 14.73L614.63 14.73Q615.01 15.25 615.37 15.58L615.37 15.58L615.37 15.58Q615.30 15.72 615.17 15.86L615.17 15.86L615.17 15.86Q615.03 16.00 614.86 16.12L614.86 16.12L614.86 16.12Q614.68 16.24 614.49 16.32L614.49 16.32L614.49 16.32Q614.31 16.39 614.14 16.39L614.14 16.39L614.14 16.39Q613.83 16.39 613.55 16.10L613.55 16.10L613.55 16.10Q613.27 15.81 612.98 15.17L612.98 15.17L612.98 15.17Q612.70 14.53 612.38 13.52L612.38 13.52L612.38 13.52Q612.07 12.50 611.69 11.07L611.69 11.07L611.69 11.07Q611.53 11.07 611.38 11.07L611.38 11.07L611.38 11.07Q611.23 11.07 611.14 11.05L611.14 11.05L611.14 11.05Q611.04 10.99 610.93 10.85L610.93 10.85L610.93 10.85Q610.55 11.66 610.26 12.38L610.26 12.38L610.26 12.38Q609.97 13.09 609.73 13.76L609.73 13.76L609.73 13.76Q609.50 14.42 609.33 15.04L609.33 15.04L609.33 15.04Q609.15 15.67 609.03 16.31L609.03 16.31L609.03 16.31Q608.55 16.20 608.20 15.90L608.20 15.90L608.20 15.90Q607.85 15.61 607.54 15.08L607.54 15.08L607.54 15.08Q607.60 14.95 607.66 14.83L607.66 14.83L607.66 14.83Q607.73 14.71 607.82 14.50L607.82 14.50L607.82 14.50Q607.92 14.28 608.07 13.94L608.07 13.94L608.07 13.94Q608.22 13.61 608.46 13.05L608.46 13.05L608.46 13.05Q608.71 12.49 609.05 11.68L609.05 11.68L609.05 11.68Q609.39 10.86 609.88 9.70L609.88 9.70L609.88 9.70Q610.11 9.18 610.27 8.79L610.27 8.79L610.27 8.79Q610.43 8.40 610.55 8.04L610.55 8.04L610.55 8.04Q610.68 7.69 610.78 7.33L610.78 7.33L610.78 7.33Q610.89 6.97 611.00 6.51L611.00 6.51L611.00 6.51Q610.36 6.73 609.80 7.01L609.80 7.01L609.80 7.01Q609.25 7.28 608.89 7.59L608.89 7.59L608.89 7.59Q608.76 7.50 608.63 7.34L608.63 7.34L608.63 7.34Q608.50 7.17 608.38 6.96L608.38 6.96L608.38 6.96Q608.27 6.76 608.19 6.55L608.19 6.55L608.19 6.55Q608.10 6.34 608.09 6.17L608.09 6.17L608.09 6.17Q608.51 5.89 609.12 5.66L609.12 5.66L609.12 5.66Q609.73 5.42 610.41 5.24L610.41 5.24L610.41 5.24Q611.10 5.07 611.81 4.97L611.81 4.97L611.81 4.97Q612.53 4.87 613.14 4.87L613.14 4.87L613.14 4.87Q614.82 4.87 615.75 5.56L615.75 5.56L615.75 5.56Q616.67 6.26 616.67 7.46ZM613.09 6.02L613.26 6.29L613.26 6.29Q613.16 6.41 612.95 6.79L612.95 6.79L612.95 6.79Q612.74 7.17 612.46 7.69L612.46 7.69L612.46 7.69Q612.19 8.22 611.89 8.83L611.89 8.83L611.89 8.83Q611.59 9.45 611.31 10.05L611.31 10.05L611.31 10.05Q612.36 10.05 613.24 9.86L613.24 9.86L613.24 9.86Q614.12 9.66 614.77 9.30L614.77 9.30L614.77 9.30Q615.41 8.95 615.77 8.46L615.77 8.46L615.77 8.46Q616.13 7.98 616.13 7.39L616.13 7.39L616.13 7.39Q616.13 6.69 615.62 6.32L615.62 6.32L615.62 6.32Q615.12 5.95 614.07 5.95L614.07 5.95L614.07 5.95Q613.83 5.95 613.59 5.97L613.59 5.97L613.59 5.97Q613.35 5.99 613.09 6.02L613.09 6.02Z"></path></g></svg>